/* XPM */
static char *floor_resize[] = {
/* columns rows colors chars-per-pixel */
"64 30 43 1 ",
"  c black",
". c #010101",
"X c #020202",
"o c #030303",
"O c #040404",
"+ c #050505",
"@ c #060606",
"# c #070707",
"$ c #080808",
"% c #0A0A0A",
"& c #0B0B0B",
"* c #0C0C0C",
"= c #0D0D0D",
"- c #0E0E0E",
"; c #0F0F0F",
": c #101010",
"> c #121212",
", c #131313",
"< c #141414",
"1 c #151515",
"2 c #161616",
"3 c #181818",
"4 c #1C1C1C",
"5 c #1D1D1D",
"6 c #1E1E1E",
"7 c #212121",
"8 c #222222",
"9 c #232323",
"0 c #262626",
"q c #272727",
"w c #282828",
"e c #292929",
"r c #2B2B2B",
"t c #2C2C2C",
"y c #2F2F2F",
"u c #333333",
"i c #343434",
"p c #353535",
"a c #363636",
"s c #373737",
"d c #393939",
"f c #3E3E3E",
"g c #535353",
/* pixels */
" w;                                                        ;;   ",
"                 d                           <<            <;   ",
"                                             ;                  ",
"                               33                               ",
"                                                                ",
"         33        u                              ;             ",
"                                                  w             ",
"                                     g3                         ",
"                                     ;                    <     ",
" d                     9<                                 9     ",
"        d     d                              d                  ",
"                             <      <                           ",
"                   w         9      9                           ",
"                   <                                            ",
"                                                                ",
"   u                                                            ",
"                                               d                ",
"              d               ;w     d                      9   ",
"                   ;w                                       <   ",
"                         <9                                     ",
"                                                     9          ",
"         u                                           <          ",
"                                    <9                          ",
"        w                                                       ",
"       dg          ;                                            ",
"                   w                                            ",
"                                                                ",
"                          d                                     ",
"                                                                ",
"                                                     33         "
};
