/* XPM */
static char *pack_5_resize[] = {
/* columns rows colors chars-per-pixel */
"43 64 146 2 ",
"   c #010101",
".  c #020101",
"X  c #000201",
"o  c #010201",
"O  c #020201",
"+  c #030201",
"@  c #020301",
"#  c #010102",
"$  c #010103",
"%  c #020102",
"&  c #020103",
"*  c #000202",
"=  c #010202",
"-  c #010302",
";  c #010203",
":  c #020202",
">  c #030202",
",  c #020302",
"<  c #030302",
"1  c #020203",
"2  c #030203",
"3  c #030303",
"4  c #040201",
"5  c #040203",
"6  c #060202",
"7  c #050403",
"8  c #010004",
"9  c #000104",
"0  c #010104",
"q  c #000204",
"w  c #010205",
"e  c #020204",
"r  c #030204",
"t  c #020304",
"y  c #020205",
"u  c #030205",
"i  c #010007",
"p  c #020107",
"a  c #000206",
"s  c #020207",
"d  c #050304",
"f  c #050206",
"g  c #020505",
"h  c #040404",
"j  c #040405",
"k  c #050405",
"l  c #050505",
"z  c #060506",
"x  c #070606",
"c  c #0B0302",
"v  c #080305",
"b  c #0C0304",
"n  c #090504",
"m  c #0B0507",
"M  c #080907",
"N  c #020208",
"B  c #030309",
"V  c #040309",
"C  c #05050A",
"Z  c #07070A",
"A  c #09080A",
"S  c #09090A",
"D  c #0D0B09",
"F  c #0B0B0F",
"G  c #0B0C0F",
"H  c #0E0C0D",
"J  c #150403",
"K  c #120407",
"L  c #140409",
"P  c #100D0B",
"I  c #0F110C",
"U  c #13110D",
"Y  c #11110E",
"T  c #0D0D10",
"R  c #0B1316",
"E  c #0A141F",
"W  c #121211",
"Q  c #111112",
"!  c #151212",
"~  c #151514",
"^  c #151714",
"/  c #161517",
"(  c #181717",
")  c #1A1B13",
"_  c #1B1B13",
"`  c #191A16",
"'  c #1A1B17",
"]  c #1C1817",
"[  c #1B1C14",
"{  c #1B1918",
"}  c #191A18",
"|  c #191B19",
" . c #1A1A18",
".. c #1B1B18",
"X. c #1A1A19",
"o. c #1D1918",
"O. c #230606",
"+. c #240606",
"@. c #2E0608",
"#. c #26080A",
"$. c #280D0B",
"%. c #330708",
"&. c #310909",
"*. c #3C1917",
"=. c #1E2119",
"-. c #322E17",
";. c #3D3915",
":. c #0B1F27",
">. c #0C1D24",
",. c #0D1E28",
"<. c #0F202A",
"1. c #2E2020",
"2. c #252E21",
"3. c #2A3524",
"4. c #460609",
"5. c #45080A",
"6. c #401516",
"7. c #7A080F",
"8. c #4B221A",
"9. c #54241A",
"0. c #493B2A",
"q. c #4B4A1C",
"w. c #6E6B23",
"e. c #7D7B21",
"r. c #0F4B56",
"t. c #0F4A62",
"y. c #126271",
"u. c #86090A",
"i. c #81080E",
"p. c #B80607",
"a. c #B80608",
"s. c #B20B0A",
"d. c #B00A0C",
"f. c #B0555C",
"g. c #B1555D",
"h. c #A4A022",
"j. c #A9A12B",
"k. c #B8B626",
"l. c #C3BF2B",
"z. c #F1EC1F",
"x. c #F2EA23",
"c. c #127487",
"v. c #4FADBE",
"b. c #54A9BF",
"n. c #0E9CC3",
"m. c #0E9DC3",
/* pixels */
": : : : : : : : : : : : : : : : : : : A : : M : : : M : : M : : : A : : Z M : : : : n ",
": : : : : : : : : : : : : : : : : : : : : M : : Z : M : : : Z : : : M : : : : M Z : : ",
": : : : : : : : : : : : : : : : : : : Z : : M : : M : Z : Z M : M M : : : : A ! o.o.M ",
": : : : : : : : : : : : : : : : : : : : M : : Z : : : : M : : : : : : Z A : ^ 2.3.=.: ",
": : : : : : : : : : : : : : : : : : : M : M : Z M : : M : : Z : Z : : : : : : A A U : ",
": : : : : : : : : : : : : : : : : : : : : : : : : Z : Z A : : M : : M M : M : : : Z : ",
": : : : : : : : : : : : : : : : : : : : M : : M : : : : : : : : : M : : : Z M : M : : ",
": : : : : : : : : : : : : : : : : : : : : Z : M : A M : : M M : : : A : : : M : : : M ",
": : : : : : : : : : : : : : : : : : : : : : : : : : : M : : : A M Z : : : : : : Z M : ",
": : : : : : : : : : : : : : : : : : : : A : M : M : Z : : M : : : : : M Z : M : : : : ",
": : : : : : : : : : : : : : : : : : : : : : : : : Z M : A : : : : : : M : M : Z : : M ",
": : : : : : : : : : : : : : : : : : : : : M : A : : : : M : Z : M Z : : : M : : : Z : ",
": : : : : : : : : : : : : : : : : : : : : Z M : : : M : : : M M : : M : : A M : A : : ",
": : : : : : : : : : : : : : : : : : : : : : : : M : : Z Z : : : : Z : : : : : : M : M ",
": : : : : : : : : : : : : : : : : : : : : : : A : M : : M : Z : : : M Z : : M M : A : ",
": : : : : : : : : : : : : : : : : : : : : M : : Z : : M : : : M M : : : A : : : : : : ",
": : : : : : : : : : : : : : : : : : : : : : : : Z : : : : Z : : : : : M : M A : M : : ",
": : : : : : : : : : : : : : : : : : : : : : : Z : M : M : : M : A : Z : : : : : : : Z ",
": : : : : : : : : : : : : : : : : : : : : : : M : : : : M M : : : : M : M : M : : Z : ",
": : : : : : : : : : : : : : : : : : : : : : : : M : n A : : Z : : M : : Z : : : : : M ",
": : : : : : : : : : : : : : : : : : : : : : A : M : Z : : : : M : : : M : Z : A M M : ",
": : : : : : : : : : : : : : : : : : : : : : : : : : : : M : Z : : A : : M : : : : : : ",
": : : : : : : : : : : : : : : : : : : : : : : A Z : : M : Z M : : Z M : M : : : : M Z ",
": : : : : : : : : : : : : : : : : : : : : : : : : M : : : : : : : : M : : : Z M : : : ",
": : : : : : : : : : : : : : : : : : : : : : : : A M : : : : Z M : M : : Z M : : : M : ",
": : : : : : : : : : : : : : : : : : : : : : : : : : : M M : : : Z : M : : : A : : Z : ",
": : : : : : : : : : : : : : : : : : : : : : : : : : : M M : : : : A : : : M : : : : M ",
": : : : : : : : : : : : : : : : : : : : : : : M M Z : : : : Z M : : : M Z : : M M : : ",
": : : : : : : : : : : : : : : : : : : : : : : : : : M : : Z : : : : : Z : M : : : Z : ",
": : : : : : : : : : : : : : : : : : : : : : : : : M : : : : M : Z M : : : : : M : M : ",
": : : : : : : : : : : : : : : : : : : : : : : : : : M Z M M : : : : M : : : Z : : : M ",
": : : : : : : : : : : : : : : : : : : : : : : : Z : : : : : : Z : M : : M A : : Z : : ",
": : : : : : : : : : : : : : : : : : : : : : : : : : : : : : : : : : : : : : : : : : : ",
": : : : : : : : : : : : : : : : : : : : : : : : : : : : : : : : : : : : : : : : : : : ",
": : : : : : : : : : : : : : : : : : : : : : : : : : : : : : : : : : : : : : : : : : : ",
": : : : : : : : : : : : : : : : : : : : : : : : : : : : : : : : : : : : : : : : : : : ",
": : : : : : : : : : : : : : : : : : : : : : : : : : : : : : : : : : : : : : : : : : : ",
": : : : : : : : : : : : : : : : : : : : : : : : : : : : : : : : : : : : : : : : : : : ",
": : : : : : : : : : : : : : : : : : : : : : : : : : : : : : : : : : : : : : : : : : : ",
": : : : : : : : : : : : : : : : : : : : : : : : : : : : : : : : : : : : : : : : : : : ",
": : : : : : : : : : : : : : : : : : : : : : : : : : : : : : : : : : : : : : : : : : : ",
": : : : : : : : : : : : : : : : : : : : : : : : : : : : : : : : : : : : : : : : : : : ",
": : : : : : : : : : : : : : : : : : : : : : : : : : : : : : : : : : : : : : : : : : : ",
": : : : : : : : : : : : K i.7.n : : 1.0.: P j.k.-.Z >.c.y.Z : : : : : : : : : : : : : ",
": : : : : : : : : : : M 5.f.f.%.n 9.8.$.Z : w.x.h.Z r.b.v.:.: : : : : : : Z : : : : Z ",
"o.[ R T [ o.R T ( [ U A 4.p.p.@.@.d.d.u.: P l.x.e.: t.n.n.:.o.! M ^ [ ! Z o.^ ! Z [ [ ",
": : : : : : : : : : : : L O.O.K n 6.6.#.: : ;.q.Z : R :.<.T : : : : : : : : : : : : : ",
": : : : : : : : : : : : : : : : : : : : : : : : : : : : : : : : : : : : : : : : : : : ",
": : : : : : : : : : : : : : : : : : : : : : : : : : : : : : : : : : : : : : : : : : : ",
": : : : : : : : : : : : : : : : : : : : : : : : : : : : : : : : : : : : : : : : : : : ",
": : : : : : : : : : : : : : : : : : : : : : : : : : : : : : : : : : : : : : : : : : : ",
": : : : : : : : : : : : : : : : : : : : : : : : : : : : : : : : : : : : : : : : : : : ",
": : : : : : : : : : : : : : : : : : : : : : : : : : : : : : : : : : : : : : : : : : : ",
": : : : : : : : : : : : : : : : : : : : : : : : : : : : : : : : : : : : : : : : : : : ",
": : : : : : : : : : : : : : : : : : : : : : : : : : : : : : : A : A : : A : : : : : : ",
": : : : : : : : : : : : : : : : : : : : : : : : : : : : : : : : : : : : : : M A : : : ",
": : : : : : : : : : : : : : : : : : : : : : : : : : : : : A : M : A : : M M : Z : : Z ",
": : : : : : : : : : : : : : : : : : : : : : : : : : : : : : : : : : Z : : : : : M : : ",
": : : : : : : : : : : : : : : : : : : : : : : : : : : : : : M : M M : : : : : M M : : ",
": : : : : : : : : : : : : : : : : : : : : : : : : : : : : : : : : : : M M Z : : : : Z ",
": : : : : : : : : : : : : : : : : : : : : : : : : : : : : : Z Z Z : : M : : : M : : M ",
": : : : : : : : : : : : : : : : : : : : : : : : : : : : : : : : : M : : : A : : M : : ",
": : : : : : : : : : : : : : : : : : : : : : : : : : : : : : : M : : : : : : : A A : : ",
": : : : : : : : : : : : : : : : : : : : : : : : : : : : : : : : : M Z : M M : : : : : "
};
