/* XPM */
static char *pack_3_resize[] = {
/* columns rows colors chars-per-pixel */
"64 36 154 2 ",
"   c black",
".  c #000101",
"X  c #010101",
"o  c #020000",
"O  c #020200",
"+  c #020102",
"@  c #010202",
"#  c #050400",
"$  c #060400",
"%  c #060500",
"&  c #070606",
"*  c #0C0C0C",
"=  c #161200",
"-  c #1B1600",
";  c #171717",
":  c #1C1B1B",
">  c #2E0300",
",  c #390400",
"<  c #251E00",
"1  c #272001",
"2  c #2A2200",
"3  c #2E2605",
"4  c #322902",
"5  c #3A2F04",
"6  c #3C3002",
"7  c #2D1928",
"8  c #371F30",
"9  c #0D292A",
"0  c #103132",
"q  c #272626",
"w  c #2C2B2B",
"e  c #373636",
"r  c #3D3B3B",
"t  c #500600",
"y  c #600700",
"u  c #670800",
"i  c #690800",
"p  c #720700",
"a  c #413401",
"s  c #524308",
"d  c #614F09",
"f  c #695300",
"g  c #615009",
"h  c #685408",
"j  c #6A550A",
"k  c #725D09",
"l  c #7A6101",
"z  c #532F48",
"x  c #623755",
"c  c #633756",
"v  c #693A5B",
"b  c #683B5B",
"n  c #18494B",
"m  c #1C585A",
"M  c #1D585B",
"N  c #1E5C5E",
"B  c #1F5E61",
"V  c #21686B",
"C  c #424040",
"Z  c #754165",
"A  c #900B00",
"S  c #930B00",
"D  c #940B00",
"F  c #AA0B00",
"G  c #A80C00",
"H  c #AA0C00",
"J  c #AA241F",
"K  c #C00E00",
"L  c #E41000",
"P  c #EC1000",
"I  c #F71100",
"U  c #F81100",
"Y  c #F91100",
"T  c #FA1100",
"R  c #E2281F",
"E  c #C93C34",
"W  c #C93D34",
"Q  c #886C02",
"!  c #8D7100",
"~  c #907203",
"^  c #927401",
"/  c #987802",
"(  c #9C7B00",
")  c #91760E",
"_  c #95790D",
"`  c #96790E",
"'  c #A96D6D",
"]  c #AC8A0E",
"[  c #AB8910",
"{  c #AC8B10",
"}  c #AB9025",
"|  c #C59B01",
" . c #C89D00",
".. c #CA9F00",
"X. c #C29C13",
"o. c #DDAD00",
"O. c #F1BD02",
"+. c #E7BA16",
"@. c #F0BF13",
"#. c #E5BE2B",
"$. c #F9C301",
"%. c #FAC300",
"&. c #FFC600",
"*. c #FFC700",
"=. c #FBC816",
"-. c #FCC917",
";. c #FCCA16",
":. c #FECA16",
">. c #FECA17",
",. c #FFCB17",
"<. c #ABA270",
"1. c #CCAF41",
"2. c #945380",
"3. c #955482",
"4. c #965483",
"5. c #AA5F94",
"6. c #B16399",
"7. c #B1639A",
"8. c #B16F9F",
"9. c #BF6BA6",
"0. c #2B8588",
"q. c #2B8689",
"w. c #2C8689",
"e. c #329A9E",
"r. c #339EA2",
"t. c #349FA3",
"y. c #38ADB1",
"u. c #43A2A6",
"i. c #72A5A8",
"p. c #5BC0C5",
"a. c #45D6DC",
"s. c #46D7DC",
"d. c #55D9DE",
"f. c #48E0E6",
"g. c #48E1E6",
"h. c #49E2E8",
"j. c #49E3E9",
"k. c #A68CA4",
"l. c #EE9692",
"z. c #CD89BB",
"x. c #D1B1B2",
"c. c #F0E49A",
"v. c #D2D3B3",
"b. c #EF85CF",
"n. c #F085CE",
"m. c #FB8BD8",
"M. c #FC8BD8",
"N. c #FE8CDA",
"B. c #FF8DDB",
"V. c #EC90D3",
"C. c #ABD5DA",
"Z. c #A6F0F6",
"A. c #D0C4D7",
"S. c #F2CCF0",
/* pixels */
"                                                                                                                                ",
"                                                                                                                                ",
"                                                                                                                                ",
"                                                                                                                                ",
"                                                                                                                                ",
"                                                                                                                                ",
"                                                                                                                                ",
"                                                                                                                                ",
"                                                                                                                                ",
"                                                                                                                                ",
"                                                                                                                                ",
"                                                                                                                                ",
"                                                                                                                                ",
"                                                                                                                                ",
"                                                                                                                                ",
"        n y.e.0         s X.[ 5         z 9.5.8         t K G ,                 3 (  .( <                                       ",
"      N g.j.j.s.9     d ;.;.,.@.3     v M.M.M.n.7     y U U U I ,               | *.%.%.!                                       ",
"      u.C.p.Z.i.V     } v.1.c.<.k     8.A.z.S.k.Z     J x.W l.' p             - *...l 4       e *   q :   ; w     r     C       ",
"      d.C.p.Z.i.t.    #.v.1.c.<.]     V.A.z.S.k.6.    R x.W l.' G             - O.*.o.^ 3     r *   q :   ; w   * r     C       ",
"      s.g.j.g.j.t.    +.;.;.;.;.[     n.M.M.M.M.6.    L U U U U G               ^ %.%.%.Q                                       ",
"      q.N q.B q.N     ) j _ j _ g     4.b 4.b 4.v     D i D i D y                 a f 6                                         ",
"                                                                                                                                ",
"                                                                                                                                ",
"                                                                                                                                ",
"                                                                                                                                ",
"                                                                                                                                ",
"                                                                                                                                ",
"                                                                                                                                ",
"                                                                                                                                ",
"                                                                                                                                ",
"                                                                                                                                ",
"                                                                                                                                ",
"                                                                                                                                ",
"                                                                                                                                ",
"                                                                                                                                ",
"                                                                                                                                "
};
