/* XPM */
static char *pack_2_resize[] = {
/* columns rows colors chars-per-pixel */
"64 64 214 2 ",
"   c #000000",
".  c #02030C",
"X  c #020D0A",
"o  c #040B04",
"O  c #02150C",
"+  c #061904",
"@  c #020313",
"#  c #02041B",
"$  c #030D10",
"%  c #021915",
"&  c #032615",
"*  c #02381E",
"=  c #0A3003",
"-  c #020522",
";  c #02062B",
":  c #040E22",
">  c #020732",
",  c #02083B",
"<  c #020834",
"1  c #021B21",
"2  c #022F2E",
"3  c #0E4603",
"4  c #115703",
"5  c #0F5102",
"6  c #146903",
"7  c #167403",
"8  c #02552D",
"9  c #024726",
"0  c #026536",
"q  c #02753E",
"w  c #010943",
"e  c #020A4C",
"r  c #020B54",
"t  c #020C5B",
"y  c #020D64",
"u  c #020E6B",
"i  c #020F74",
"p  c #020F79",
"a  c #02117B",
"s  c #024352",
"d  c #037940",
"f  c #035C6F",
"g  c #198803",
"h  c #1C9703",
"j  c #1EA803",
"k  c #21B503",
"l  c #24CB02",
"z  c #27D803",
"x  c #29E303",
"c  c #2DFF00",
"v  c #2CF404",
"b  c #35FD0D",
"n  c #38FB12",
"m  c #2FEF10",
"M  c #36CE31",
"N  c #49FD24",
"B  c #5AFD38",
"V  c #43FD1D",
"C  c #028647",
"Z  c #02914D",
"A  c #029C52",
"S  c #029650",
"D  c #02A256",
"F  c #02AC5B",
"G  c #03A758",
"H  c #02B45F",
"J  c #3CAE51",
"K  c #02BC63",
"L  c #499474",
"P  c #02C769",
"I  c #02D972",
"U  c #03D06E",
"Y  c #03E87A",
"T  c #6FF857",
"R  c #76E86A",
"E  c #84FD6C",
"W  c #88F07A",
"Q  c #011184",
"!  c #02128B",
"~  c #021394",
"^  c #02149C",
"/  c #0115A3",
"(  c #0216AD",
")  c #0217B3",
"_  c #0118BE",
"`  c #0117B8",
"'  c #0836B1",
"]  c #027992",
"[  c #017188",
"{  c #0219C5",
"}  c #021ACB",
"|  c #021BD3",
" . c #021CDA",
".. c #021DE3",
"X. c #021EEC",
"o. c #021FF3",
"O. c #031FFC",
"+. c #0A1DFE",
"@. c #121AFE",
"#. c #1B17FE",
"$. c #2215FE",
"%. c #3019FC",
"&. c #0020FF",
"*. c #0926FC",
"=. c #0E2AFC",
"-. c #0328F3",
";. c #122EFC",
":. c #1323FC",
">. c #1A35FC",
",. c #263BFC",
"<. c #3821FC",
"1. c #5D00FF",
"2. c #5E14F9",
"3. c #6209FC",
"4. c #6814FC",
"5. c #701FFC",
"6. c #7728FD",
"7. c #7C32FC",
"8. c #2A43FC",
"9. c #334CFC",
"0. c #3B53FC",
"q. c #485CFC",
"w. c #5257FC",
"e. c #6B59FC",
"r. c #7B4AFC",
"t. c #576BFC",
"y. c #5E72FC",
"u. c #4D62FC",
"i. c #6878FC",
"p. c #7377FC",
"a. c #7E62D9",
"s. c #823BFC",
"d. c #8A48FC",
"f. c #8F59FB",
"g. c #9866FA",
"h. c #8F6FF4",
"j. c #A97AFB",
"k. c #A26DFC",
"l. c #00849F",
"z. c #0187A3",
"x. c #0296B5",
"c. c #0290AE",
"v. c #1BBAA5",
"b. c #239FB3",
"n. c #13D799",
"m. c #00FF85",
"M. c #0CFD8A",
"N. c #04F286",
"B. c #12FE8C",
"V. c #1EFA94",
"C. c #2FFE9B",
"Z. c #3DF6A4",
"A. c #28DCA1",
"S. c #52FCAC",
"D. c #68FEB6",
"F. c #75FDBC",
"G. c #02A4C6",
"H. c #03B4D7",
"J. c #08B4EA",
"K. c #1F8FFE",
"L. c #7987FC",
"P. c #6CACDE",
"I. c #02C3EA",
"U. c #00D2FF",
"Y. c #0BD4FD",
"T. c #09CBFA",
"R. c #2DCDFC",
"E. c #7DEFC4",
"W. c #41DDFD",
"Q. c #79CCFC",
"!. c #6BE5FD",
"~. c #67D7E3",
"^. c #98FD84",
"/. c #AAFD99",
"(. c #A0E99C",
"). c #B7FEA9",
"_. c #85D68A",
"`. c #8489FC",
"'. c #8896FC",
"]. c #969EFC",
"[. c #AE81FC",
"{. c #B287FC",
"}. c #BA98FB",
"|. c #9AA6FC",
" X c #A5A9FC",
".X c #A8B2FC",
"XX c #B3BCFC",
"oX c #8495D4",
"OX c #C6A6FC",
"+X c #D0B6FC",
"@X c #89FEC6",
"#X c #99FECD",
"$X c #B6FDDC",
"%X c #A7FED4",
"&X c #BBC4FD",
"*X c #92EBFC",
"=X c #B7F5F6",
"-X c #9CD9C9",
";X c #D4FECB",
":X c #C5CDFB",
">X c #DDCAFC",
",X c #D8D9FC",
"<X c #CDD3FB",
"1X c #E5DAFB",
"2X c #D3F5F2",
"3X c #E9E7FB",
"4X c #F2ECFC",
"5X c #EEF1FC",
"6X c #EBFEF5",
"7X c #F4F4FC",
"8X c #F4FBF9",
"9X c #FEFEFE",
"0X c #F7F9F8",
"qX c #EEFBEC",
/* pixels */
"        o + g k h g 6                     u Q ^ ) Q # @                   u Q ^ ` Q # .                   y Q ^ ) Q # .         ",
"      6 h c c c c c v h =             ; ^ X.&.&.&.&.&.~ u             ; ^ X.&.&.&.&.&.~ u             > ^ o.&.&.&.&.&.~ u       ",
"    g v c c b v c c c c l g         Q  .&.&.&.&.O.O.&.&.X.Q         Q  .&.&.&.&.&.&.O.O.-.!         Q  .&.&.&.&.&.&.&.&.o.Q     ",
"  = z b V b b v c c c c c c 6     u -.&.&.&.&.&.O.O.=.>.*. .<     u &.&.&.&.&.&.&.&.&.,.=.| >     u o.&.&.&.&.&.&.&.=.>.=. .<   ",
"  h b /.9X9X-XV c V /.W E c h o . ~ &.i.'. X8.&.=. X9X9X|.=.^   . ~ O.L.'.|.,.&.;. X9X9X|.=.^   . ~ &.i.'. X8.&.;. X8X9X|.=.^   ",
"6 v N 9X9X{.5.R b 0X9X9Xj.T c + # &.y.g.9X9X8X=.w.7.{.9X9X8.X.u # &.t.g.9X9X7X=.w.7.{.9X9X8.X.u # &.t.g.9X9X7X=.w.7.{.9X9X8.o.y ",
"g v B qX9X4.1.J V 9X9X7.4.L c g Q &.<.3.6.9X9X>.$.1.3.9X4X9.&.Q Q &.<.1.7.9X9X>.$.1.4.8X4X9.&.Q Q &.<.3.7.9X9X>.$.3.3.9X4X9.&.Q ",
"h v v T qXqXW m b /.0X[.h.J c k ` &.#.r.{.9X X=.=.p.3X5Xt.&.&.^ ) &.#.r.{.9X.X=.O.i.4X4Xt.O.&.^ ) &.#.r.{.9X X=.O.p.4X5Xt.&.&.^ ",
"k c c c E T c c c V ;X;XB c c h ^ &.&.9.,X:X;.&.&.&.i.i.&.&.&.( ^ &.&.9.,X:X;.&.&.&.y.i.&.&.&.) ^ &.&.9.,X:X;.&.O.O.y.i.&.&.&.` ",
"l c c c c c c c c c c b c c c g Q &.&.&.&.O.&.&.&.&.&.&.&.&.&.{ Q &.&.&.=.&.&.&.&.&.&.&.&.&.&.{ Q &.&.&.=.&.&.&.O.O.O.O.&.&.&.{ ",
"z c c c c c c c c c c c c c c 7 i &.&.&.&.&.&.&.&.&.&.&.&.&.&. .i &.&.&.&.&.&.&.&.&.&.&.&.&.&. .i &.&.&.O.O.O.O.O.O.O.O.&.&.&. .",
"m c c h c c c c c c c c c c c 4 y &.&.&.&.&.&.&.&.&.&.) X.&.&...t &.&.&.&.&.&.&.&.&.&.` X.&.&.X.t &.&.&.&.&.O.O.O.O.O.) X.&.&.X.",
"c x 4 o 5 l c c c c h g c c c 3 e &.&.` a { &.&.&.O.} - , y X.O.e &.&.} a } o.&.&.&.} - > r X.&.r &.&.} a } -.O.&.&.} - < t X.-.",
"l 3       + c c c 6     + z c = , O. ..     i &.&.-.-       e  .e &. .@     i &.O.-.-       w } r &. .@     i O.&.&.-       , ' ",
"=           3 z 4         3 x + ;  .,         t  .,           > ;  .w         t  .,           ; <  .,         t  .<           : ",
"                            4 o . w                             . e                             . e                             ",
"            ( / / ~ r                   . # Q ) ^ Q u                     8 Z A G F                       s l.l.l.l.%           ",
"    . r / &.&.&.&.&...` @             u ~ &.O.&.&.&.X.^ <             O H Y m.m.m.m.m.G 8             X x.I.U.U.U.U.I.c.2 X     ",
"    ~ &.&.&.&.&.&.&.&.&...Q .       Q o.&.O.&.&.&.&.&.&.} !         Z Y m.m.m.m.m.m.m.m.m.Z       . ] U.U.U.U.U.U.U.U.U.U.]     ",
"  @ ..&.&.&.&.&.&.&.&.&.&.&.r     <  .=.,.=.&.&.&.&.&.&.&.-.u     8 m.m.m.m.m.m.m.m.m.m.m.Y O     2 U.U.U.U.U.U.U.U.U.U.U.U.X   ",
"  ` ;.L.4X4X|.=.O.0.XX XL.O./     ~ =.`.1X9X:X;.&.,.|.'.i.&.~ @   G m.E.%X$XZ.Y B.#X6X4XE.M.F     x.U.!.2X=XW.Y.Y.!.2X2XQ.Y.G.  ",
"r ..,.d.g.7X9Xt.>.j.{.9X5Xi.&.  u o.@.7.s.4X9XL.&.}.{.9X5Xt.&.#   m.D.8X7X{.j.V.D.9X7Xg.d.A.Y 8 % I.!.9X9Xj.k.R.W.9X9X[.d.R.J.2 ",
"~ O.#.1.1.9X9Xu.@.1.1.3X9Xi.&.( Q &.@.2.4.7X9Xy.@.1.1.>X9XL.O.Q H m.D.9X1X3.1.n.S.9X9X1.1.v.m.Z z.U.!.9X4X3.1.K.W.9X9X1.1.K.U.z.",
"/ O.&.p.3X7X'.;.O.e.OX7X:X9.&./ ^ &.O.t.4X5XL.=.O.e.{.7X,Xu.&.) G Y V.2X7XOXP.N.M.@X6X4XF.m.m.D z.U.Y.=X7X+XQ.J.Y.*X8X,X|.T.U.l.",
"/ O.O.O.'.i.&.&.&.=..X:X>.&.&.^ ` &.&.&.i.y.&.&.&.;.<X,X0.O.O./ D m.m.V.;X%XB.m.m.m.F.@Xm.m.m.G l.U.U.Y.=X*XU.U.Y.U.*X*XU.U.U.l.",
") O.&.&.&.&.&.&.&.&.&.&.&.&.&.~ { &.&.&.&.&.&.&.&.&.O.=.&.&.O.Q Z m.m.m.m.m.m.m.m.m.m.m.m.m.m.H l.U.U.U.U.U.U.U.U.U.U.U.U.U.U.z.",
"{ &.&.&.&.&.&.&.O.O.&.&.&.&.&.Q  .&.&.&.&.&.&.&.&.&.&.&.&.&.&.i C m.m.m.m.m.m.m.m.m.m.m.m.m.m.H l.U.U.U.U.U.U.U.U.U.U.U.U.U.U.z.",
"{ &.&.) &.&.&.&.O.O.O.-.&.&.&.a -.&.&.~ &.&.&.&.&.&.&.&.&.&.&.t q m.m.m.m.m.m.m.m.m.m.H m.m.m.U ] U.U.I.T.U.U.U.U.U.U.H.U.U.U.c.",
" .&./ # u ` O.&.O.O.^ e { o.&.p O...r @ e } &.&.&.o.~ Q &.&.&.w 0 m.N.C d K m.m.m.m.K % 0 A m.I ] U.I.s f x.U.U.U.U.x.1 [ G.U.x.",
" .Q .     -  .&.O.~ .     ~ O.Q } ,       - O.&.&.u     @ ..&.< 0 m.A   .   Z m.m.I &     o C I [ U.s     $ z.U.U.x.1     1 H.x.",
"u           #  .a @       @ / u ;           w  .r         w ..# 8 F O       X d I O           0 [ f         $ z.G.O         X ] ",
"                            @ @                             t   O O                                                             ",
"          y Q ^ ( ^ . .                 . - a ` ^ Q u                     0 Z A F Z O o                   . ( / / ~ e           ",
"      ; / X.&.&.&.&.&.^ y             u ~ &.&.&.O.O.-.~ <             & G Y m.m.m.m.m.A 0           . w ) o.O.&.&.&...`         ",
"    Q  .&.&.&.&.&.&.&.&.O.Q         Q &.&.&.&.&.O.&.&.&.} Q         Z U m.m.m.m.m.m.m.m.m.Z         Q &.&.&.&.O.&.&.&.&.O.Q .   ",
"  y &.&.&.&.O.O.&.&.O.=.=. .;     > } =.8.;.&.&.&.&.&.&.&.&.u     0 m.m.m.m.m.m.m.m.m.B.M.U &       o.&.&.&.&.&.&.&.&.&.&.O.w   ",
". ^ &.i.|..X8.O.=.].7X9X|.=./     ~ =.`.>X9X<X;.&.>.|.'.y.&.~ . o G m.D.#X%XC.m.M.$X8X3X-XB.D     { ;.h.3X3X'.=.O.q.:XXXL.&.`   ",
". &.t.g.4X9X9X;.w.s.{.9X9X9.X.y u o.=.6.7.4X9XL.&.}.[.9X7Xt.&.- o Y D.qX7X{.{.M.F.9X7Xd.r.n.Y 0 e ..,.d.j.8X9Xu.,.j.j.7X7Xy.o.. ",
"^ &.<.1.6.9X9X,.#.1.3.9X7X0.&.Q Q &.#.2.4.4X9Xy.O.1.1.>X9XL.&.Q A m.F.9X1X1.1.n.S.9X7X1.2.n.m.C ~ &.#.3.1.9X9Xq.@.1.1.3X9Xy.&.( ",
"( &.@.r.}.9X|.=.O.p.3X7Xi.&.&.^ ^ &.&.u.4X7XL.=.O.e.{.7X3Xu.&.` F m.C.2X4X}.P.N.M.E.8X6XD.N.m.A ^ &.O.p.,X8X|.=.&.e.OX9X&X8.&./ ",
"^ &.&.8.,X&X;.&.&.&.i.L.&.&.&.( ` &.&.&.i.t.&.&.&.;.<X,X0.&.&.^ A m.m.C.2X$XB.m.m.m.F.F.m.m.m.F / &.&.&.'.L.&.&.&.=..XXX;.&.&.^ ",
"Q &.&.&.&.&.&.&.&.&.&.&.&.&.O.{ } &.&.&.&.&.&.&.&.&.&.;.&.&.&.Q Z m.m.m.m.m.m.m.m.m.m.Y m.m.m.P ( &.&.&.&.&.&.&.O.O.&.&.&.&.&.~ ",
"a &.&.&.&.&.&.&.&.&.&.&.&.&.&.} ..&.&.&.&.&.&.&.&.&.&.&.&.&.&.u q m.m.m.m.m.m.m.m.m.m.m.m.m.m.U ` &.&.&.&.&.&.&.O.&.&.&.&.&.&.Q ",
"u &.&.&.&.&.&.&.&.&.&.) o.&.&. .&.&.&.Q &.&.&.&.&.&.&.&.&.&.&.r 0 m.m.m.m.m.m.m.m.m.m.H Y m.m.Y ` &.&.` &.&.&.&.&.&.&.X.&.&.&.Q ",
"t &.&./ i { &.&.&.&.{ - w Q o.&.&. .e . e  .&.&.&.o.~ ^ &.O.&.w 8 m.m.F q P m.m.m.m.P & * d Y N.} &.` # i ` &.&.O.&./ , ` -.O.Q ",
"e &.{       a &.&...-       t ..{ >       - -.&.&.y     - X.&.- 9 m.U       d m.m.Y &       8 Y } ( $     - } &.&.^ @     i O.i ",
", } ;       . y  .;           w -           w  .e         e X.@ * U &       o 0 I &           9 a           .  .Q .       . Q i ",
"@ >                                                         y   O *                                                         . @ ",
"            j j h h 4                     O F D A A 9                     . ( / ^ ^ e                     r ~ ^ / )             ",
"      4 j c c c c c x k +           X * H Y m.m.m.m.Y P             . w ) o.&.&.&.&...`               . ` ..&.&.&.&.o.( w @     ",
"    h v c c v v c c c c x g         Z m.m.m.m.m.m.m.m.m.m.A O       Q &.O.&.&.&.&.&.&.&.O.~ .     . ~ X.&.&.&.&.&.&.&.&.&.Q     ",
"  + x c c c v v c c c c c c 4       m.m.m.m.m.m.m.m.m.m.m.m.*       &.&.&.&.&.O.&.&.&.&.&.&.,     w &.&.&.&.&.&.&.&.&.&.&.o..   ",
"  k b /.9XqX(.c c B )./.E v j o   P M.@XqX2X@XY m.S.$X$XE.m.H     { =.`.3X,X'.=.&.q.&X&XL.&.)     ( &.L.XX&Xq.&.=.'.,X4X].;.{   ",
"4 x B 9X9X{.7.R N 9X9X1Xg.E c   9 Y S.9X7Xj.d.Z.C.9X9X+Xf.S.Y $ e ..,.d.j.9X9Xu.,.j.j.7X8Xy.X.@ . -.u.f.>X9X9X,.q.d.[.9X9X0...e ",
"g v T 9X9X3.1.J B 9X9X5.1.L c j A m.S.9X9X3.3.v.C.9X9X5.3.b.m.F ^ O.$.1.1.9X9Xq.#.3.1.3X9Xy.O.( ( O.$.1.5.9X9X9.#.1.1.9X9Xu.&.~ ",
"j v v E qX1X_.m b /.0XOXoXM c j D m.M.@X8X>X~.N.M.#X9X+XoXn.m.G ^ O.=.p.1X8X].=.O.e.+X7X&X,.&./ / O.@.f.}.9X|.;.O.p.1X8X'.&.&./ ",
"j c c c ^.E c c v b ).;XN c c h A m.m.m.@X@Xm.m.m.M.#X$XB.m.m.D / O.&.&.'.L.&.&.&.=. X&X;.O.&./ ^ &.&.;.&X.X=.&.O.O.L.'.O.O.O./ ",
"k c c c c c c c c v c c v c c h F m.m.m.m.m.m.m.m.m.m.m.m.m.m.Z ( O.O.O.&.&.&.&.&.&.O.&.&.&.O.~ ~ &.&.&.O.O.O.&.O.O.O.O.O.O.O.) ",
"l c c c c c c c c c c c c c c g H m.m.m.m.m.m.m.m.m.m.m.m.m.m.Z ) O.O.O.&.&.&.&.&.&.&.&.&.&.&.~ Q &.&.&.O.O.&.&.O.O.O.O.&.&.O.` ",
"l c c k c c c c c c c c c c v 7 H m.m.U m.m.m.m.m.m.m.Y m.m.m.Z { O.O.} -.&.&.&.&.&.&.X.&.&.&.Q Q &.&.O.O.&.&.&.O.O.O.{ &.O.O.{ ",
"z c h + 6 k c c c c h 5 l v c 6 K m.P & q H m.m.m.m.G * H Y m.C { &.) - p ) O.O.&.&./ , ` o.&.a a &.X.u i ` &.&.&.&.` # u ( &.} ",
"z g       = z c c h       j v 6 P K O     % P m.m.A O     q m.d { ` #     - { &.&.^ @     u &.a i &.Q     @ ~ &.&.} -     @ ^  .",
"6           + z 7 o       + k 5 C           O U Z X         d d a           @  .Q @       . Q i y ~ .       . Q  ..           a ",
"                            + +                             o                               . . . @                             "
};
