/* XPM */
static char *pack_sprite_2_resize[] = {
/* columns rows colors chars-per-pixel */
"64 64 142 2 ",
"   c #FB0166",
".  c #FF0064",
"X  c #FF0065",
"o  c #FF0265",
"O  c #FF0066",
"+  c #FF0166",
"@  c #FF0266",
"#  c #FF0367",
"$  c #FF0467",
"%  c #FF0567",
"&  c #F90268",
"*  c #FF0568",
"=  c #FF0569",
"-  c #FE0668",
";  c #FF0768",
":  c #FE0669",
">  c #FF0669",
",  c #FF0769",
"<  c #FE076A",
"1  c #FF076A",
"2  c #FF086A",
"3  c #FF096A",
"4  c #F8096C",
"5  c #FF0B6C",
"6  c #FF0C6C",
"7  c #FE0D6C",
"8  c #FE0D6D",
"9  c #FE0E6D",
"0  c #FE0F6D",
"q  c #0553D3",
"w  c #0554D3",
"e  c #0153D4",
"r  c #0154D4",
"t  c #0055D4",
"y  c #0155D4",
"u  c #0155D5",
"i  c #0056D5",
"p  c #0156D5",
"a  c #0554D4",
"s  c #0555D4",
"d  c #0755D4",
"f  c #0456D4",
"g  c #0657D4",
"h  c #0B5AD5",
"j  c #0A5CD5",
"k  c #0C5CD6",
"l  c #0C5CD7",
"z  c #E6E7E7",
"x  c #E9E5E7",
"c  c #E7E8E8",
"v  c #E9E8E9",
"b  c #E8E9E9",
"n  c #EAE9EA",
"m  c #EBE9EA",
"M  c #E9EAEA",
"N  c #EBEAEB",
"B  c #EAEBEB",
"V  c #ECEBEC",
"C  c #EEEBEC",
"Z  c #EBECEC",
"A  c #ECECEC",
"S  c #EDECED",
"D  c #ECEDED",
"F  c #EDEDED",
"G  c #EEECED",
"H  c #EEEDED",
"J  c #EFEDEE",
"K  c #EDEEEE",
"L  c #EEEEEE",
"P  c #EFEEEF",
"I  c #EEEFEF",
"U  c #EFEFEF",
"Y  c #F0EEEF",
"T  c #EFEEF0",
"R  c #F0EFF0",
"E  c #F1EFF0",
"W  c #F3EFF1",
"Q  c #EFF0F0",
"!  c #F0F0F0",
"~  c #F1F0F0",
"^  c #F1F0F1",
"/  c #F0F1F1",
"(  c #F1F1F1",
")  c #F2F0F1",
"_  c #F2F1F1",
"`  c #F2F1F2",
"'  c #F1F2F2",
"]  c #F2F2F2",
"[  c #F3F2F2",
"{  c #F3F2F3",
"}  c #F2F3F3",
"|  c #F3F3F3",
" . c #F4F2F3",
".. c #F5F2F3",
"X. c #F4F3F3",
"o. c #F4F3F4",
"O. c #F5F3F4",
"+. c #F6F3F4",
"@. c #F3F4F4",
"#. c #F4F4F4",
"$. c #F5F4F4",
"%. c #F5F4F5",
"&. c #F4F5F5",
"*. c #F5F5F5",
"=. c #F6F4F5",
"-. c #F6F5F6",
";. c #F7F5F6",
":. c #F5F6F6",
">. c #F6F6F6",
",. c #F7F6F6",
"<. c #F7F6F7",
"1. c #F6F7F7",
"2. c #F7F7F7",
"3. c #F8F6F7",
"4. c #F9F6F7",
"5. c #F8F7F8",
"6. c #FAF7F8",
"7. c #FEF7FA",
"8. c #FFF7FA",
"9. c #F7F8F8",
"0. c #F8F8F8",
"q. c #F9F8F9",
"w. c #F8F9F9",
"e. c #F9F9F9",
"r. c #FAF9F9",
"t. c #FBF9FA",
"y. c #F9FAFA",
"u. c #FAFAFA",
"i. c #FBFBFB",
"p. c #FCF9FA",
"a. c #FFF9FB",
"s. c #FFFAFC",
"d. c #FEFBFC",
"f. c #FFFBFD",
"g. c #FAFCFE",
"h. c #FCFCFC",
"j. c #FDFCFC",
"k. c #FDFDFD",
"l. c #FDFDFE",
"z. c #FFFDFE",
"x. c #FEFEFE",
"c. c #FFFFFF",
/* pixels */
"c.z c.b c.c 2.b 2.2.2.2.b 2.b c.Q c.c c.c c.c c.z c.c c.c 9.b 9.Q 2.Q 2.Q Q 2.b 1.I 9.I c.z c.z c.z c.c c.b c.I 1.Q 2.2.Q 2.b 9.",
"c c.z c.b c.b c.b 2.Q Q 2.Q 2.b 9.b 9.b c.c c.c c.c c.c c.b c.T 2.Q 2.Q 2.Q 2.9.I 1.I 9.c c.c c.c c.c 9.b 9.b 9.Q 2.Q Q 2.I 2.Q ",
"c.z c.c c.b c.b 2.2.2.2.2.Q 2.2.Q 9.b c.b c.c c.z c.c 9.b c.b 9.I 1.2.Q 2.T 2.b 1.I 9.I 9.c c.c c.c c.b c.b c.b 2.I 2.Q Q 2.Q 2.",
"z c.z c.b c.b 2.b 2.b 2.b 2.2.b 2.Q 9.b c.c 9.c c.b c.b 9.T 9.T 2.b Q 2.b 2.Q 2.I 1.I 9.I 9.c c.c c.c c.I 9.b 2.Q 2.Q 2.2.Q 2.Q ",
"c.c c.b 2.b 2.Q 2.b 2.b 2.2.2.2.Q 9.Q c.b 9.b c.x 2 # 2 2 # # 2 2 # 2 # 2 # 2 2 2 I 9.I 1.b t.b 9.b c.b c.b 2.I 2.I 2.Q Q Q Q 2.",
"b 2.b c.b c.b 2.Q 2.2.2.2.b 2.b 9.b 2.b c.b c.b 9.2 + + # # + + # + # + # + # # 2 1.I 9.I c.b c.b c.b 9.Q 9.I 2.I 2.Q 2.Q 2.2.Q ",
"c.b c.b 2.b c.2.2.Q 2.Q 2.2.2.2.Q 2.Q 9.b c.b c.b # # + # # + + # # + + + + # # # Q 1.I 1.I c.b 9.b c.Q 9.I 2.I 2.Q 2.Q Q 2.Q 2.",
"b 2.b c.Q 2.b 2.b 2.2.b 2.b 2.b 2.Q 2.Q 9.b 9.Q c.# # + # # + + + + + + + + + + ; 1.I 1.I 1.b c.Q 9.b 9.Q 2.Q 2.I 2.Q Q 2.Q 2.Q ",
"9.Q 9.b 2.b 2.Q 2.2.2.2.Q 2.2.2.Y 2 + ; # # # # + + . + + + + + + + + + + + + + + + + ; + ; 2 b 9.b 2.b 2.Q 2.b 2.I 2.Q 2.2.Q 2.",
"Q 1.Q 2.Q 2.Q 2.b 2.b 2.2.b 2.b 2.; + + + + + + + + + + + + + + + + + + + + + + + + + + + + 2 2.2.2.Q 2.Q 2.Q 2.I 2.Q 2.Q Q 2.Q ",
"2.Q 2.Q 2.Q 2.Q 2.2.b Q 2.2.2.b ( ; + + + + + + + + + + + + + + + + + + + + + + + + + + + + + ( 2.b 2.2.2.Q 2.Q Q 2.Q Q 2.Q Q 2.",
"Q 2.Q 2.Q 2.Q Q 2.Q 2.2.Y b 2.2.( + + + + + + + + + + + + + + + + + + + + + + + + + + + + + ; ( 2.2.b 2.Q 2.Q 2.2.Q 2.Q Q 2.Q Q ",
"2.2.Q 2.Q 2.Q 2.Q 2.2.Q 2.2 2 2 + + + + + + + + + + + + + + + + + + + + + + + + + + + + + + + + + # 2 | Q Q 2.Q 2.Q Q 2.2.Q Q 2.",
"Q Q 2.Q 2.Q 2.Q 2.Q Q 2.b 2 # # + + + + + . + + + + + + + + + + + + + + + + + + + + + + + + + + + + 2 Q 2.Q Q 2.Q Q 2.Q Q 2.2.Q ",
"Q 2.b 2.Q 2.Q 2.Q 2.T Q 2.2 + + + + + + + + + + + + + + + + + + + + + + + + + + + + + + + + + + + + 2 1.Q 2.Q 2.2.Q Q 2.2.Q Q Q ",
"2.Q 2.Q 2.Q 2.b 2.Q 2.Q 2.# + + + + . + + . + . . . . . + + + + + + + + + + + + + + + . . . . . + + 2 Q 2.Q 2.Q 2.Q Q 2.Q 2.Q 2.",
"b 9.I 2.Q 2.Q 2.Y 2 # 2 # + + + + + + + + c.c.c.c.c.c.c.c.+ + + + + + + + + + + + + + c.c.c.c.c.c.c.c.+ # 2 2 2.Q 2.I 2.Q Q 2.I ",
"9.Q 9.Q 2.Q 2.I 2.2 + + + + + + + + + + + c.c.c.c.c.c.c.c.+ + + + + + + + + + + + + + c.c.c.c.c.c.c.c.+ + + 2 Q 2.Q 2.Q Q 2.Q 2.",
"b c.b 9.I 1.b 9.Y + + + + + + + + + + + + c.c.c.c.c.c.c.c.+ + + + + + + + + + + + + + c.c.c.c.c.c.c.c.+ + + # 8.T 2.Q 2.2.b 2.b ",
"c.b c.b 9.I 9.Q 2.; + + + + + + + + + 2 + c.c.c.c.c.c.c.c.+ 2 ; + + + + + + + + ; + + c.c.c.c.c.c.c.c.+ # 2 2 b 2.I 2.Q 2.2.2.1.",
"b 9.c c.b c.b 9.Y + + + + + + + + 8.c.t.c.c.c.c.c.c.c.c.c.7.c.c.t.+ + + + + + t.c.c.c.c.c.c.c.c.c.c.c.c.c.t.c.2.Q 2.Q 2.Q Q 2.b ",
"c.c c.b c.b 9.Q 2.2 + + + + + + + t.c.c.c.c.c.c.c.c.c.c.c.c.c.c.t.+ + + + + + t.c.c.c.c.c.c.c.c.c.c.c.c.c.c.c.b 2.b 2.Q Q 2.2.9.",
"c c.c c.b 9.b c.b ; + + + + + + + c.c.c.c.c.c.c.c.c.c.c.c.c.c.c.c.+ + + + + + c.c.c.c.c.c.c.c.c.c.c.c.c.c.c.c.2.Q 2.b 2.2.Q 2.b ",
"c.z c.c c.b c.b 2.+ + + + + + + + c.c.c.c.c.c.c.c.c.c.c.c.c.c.c.t.+ + + + + + 8.c.c.c.c.c.c.c.c.c.c.c.c.c.c.c.b 2.I 2.2.Q 2.Q 1.",
"z c.c c.c c.b c.b 2 # # + + + + + t.c.c.c.c.c.c.c.e e e r r r r e + + + + + + t.c.c.c.c.c.c.c.r r r r r r r g 9.I 2.b 2.2.2.2.b ",
"c.c c.c c.b 9.b 2.# # # + + + + + c.c.c.c.c.c.c.c.e e e r g g r w + + + + + + c.c.c.c.c.c.c.c.g r g r r r g l Q 2.Q 2.2.b 2.b 2.",
"c c.c 9.b c.b 1.E 2 + + + + + + + t.c.c.c.c.c.c.c.g r r p r g r w + + + + + + t.c.c.c.c.c.c.c.r g r r g r g j 9.I 2.2.2.T 2.2.2.",
"c.b c.b c.b 9.Q 2.# + + + + + + + c.c.c.c.c.c.c.9.g r r r g r p w + + + + + + c.c.c.c.c.c.c.c.r g r g r g r l Q 2.b 2.b 2.2.b 2.",
"c c.b c.b 2 2 # # # + + + + + + + c.c.c.c.c.c.c.9.g g r g r g r e + . + + + + t.c.c.c.c.c.c.c.g r r g r g r g 4 2 2 2 I I 2.2.b ",
"9.c c.b 9.2 + + + + + + + + + + + c.c.c.c.c.c.c.9.g r g r i r g e + + + + + + c.c.c.c.c.c.c.c.g p g p r r r r & + + 2 2.2.I I 2.",
"b c.b 9.Q 2 + + + + + + + + + + + t.c.c.c.c.c.c.c.p p g g r g r e + + + + + + t.c.c.c.c.c.c.c.r r g g r r g r & + + 2 2.2.b 2.b ",
"c.b 9.Q 1.2 + + + + + + + + + + + c.c.c.c.c.c.c.9.p r r r p p p w + + + + + + c.c.c.c.c.c.c.c.g r r r p g r r & + + 2 b 2.2.2.2.",
"I 1.I 1.I ; + + + + . + + + . + + . . . + t.c.c.c.c.c.c.c.. . . . + + + + + + . + . + c.c.c.c.c.c.c.c.. . . . + + + ; 2.( I 2.I ",
"1.I 2.I 1.+ + + + + + + + + + + + + + + + c.c.c.c.c.c.c.c.+ + + + + + + + . + + + + + c.c.c.c.c.c.c.t.+ + + + + + + ; ( ( 2.I 2.",
"I 2.I 2.( ; + + + + + + + + + + + + + . + c.c.c.c.c.c.c.c.+ + + + + + + + . + + + + + c.c.c.c.c.c.c.c.+ + + + + + + + 2.( I ( 2.",
"2.I 2.I 2.; + + + . + + + . + + + + + + + t.c.t.c.t.c.c.t.+ + + + + + . + + + + + + + t.t.c.t.c.t.c.t.+ + . + + . + ; ( 2.2.( ( ",
"2.I 2.I 1.; + + + + + + + + + + + + + + + + + ; + + ; ; + + + + + + + . + + + . + . + + ; ; + + + + + + + + + + + + ; I ( ( ( ( ",
"I 2.I 2.( ; + + + + + . + + + . + + + . + + + + + + + + . + + + + + + + + + + + + + + + . + + + + + + + + + + + + + ; 2.( 2.( 2.",
"1.I 2.I ( ; + + . + + + . + + + . + + + + + + + + + + + + + + . + . + + + . + + + + + + + + + + + + + + + + + + + + ; ( I 2.( 2.",
"I 1.I 2.( + + + + + + + + + + + + + + + + . + + + . + + + + + + + + + + + + + + + + . + + + + + + + + + + + + + + + ; ( 2.I 2.I ",
"1.I 1.I 1.2 + + + + + + + + . + + + . + + + + + + + + + + . + + + + + . + + + + + + + . + + + + + . + + + + + + + + ; Q 2.2.Q 2.",
"I 1.I 1.I 2 + + + + + . + + + + + + + + + + + . . + + + + + + + + + + + + + . + + + + + + + . + + + + + + + + + + + ; 2.Q Q 2.I ",
"t.b 1.I 1.; + + . + + + + + + + + + + + . + + + + + + + + + + + + . + + + + + + + . + + + + + + + + + + + + + + + + + I Q 2.I 2.",
"b c.I 1.b ; + + + + + + + . + + + . + + + + + + + + + + + + . + + + + + . + + + + + + + . + + + + + . + + + + + + + ; 2.2.I 2.I ",
"c.c c.b c.2 + + + + + + + + . + + + . + + + + + + + + + + + + + + + + + + + + + + + + + + + + + + + + + + + + + + + 2 Q I 2.I 2.",
"z c.c t.b 2 + + + + + . + + + + + + + + + + + . + + + + + + + + + + . + + + . + + + . + + + . + . + + + + + + + + + 2 2.2.I 2.I ",
"c.z c.z c.2 + + . + + + + + + + + + + + . + + + + + + + + + + + + + + + + + + + + + + + + + + + + + + . + + + + + + 2 Q I 2.I 2.",
"z c.z c.b + + + + + + + + . + + + . + + + + + + + + + + + + + + . + + + . + + + . + + + . + + + + + + + + + + + + + ; Q 2.I 2.I ",
"c.z c.z c.; + + + + + + + + + + + + + + + + + + + + + + + + + + + + + + + + + + + + + + + + + + + + + + + + + + + + ; I 2.1.I 1.",
"z c.z c.c ; + + + + + + + + 2 ; 2 + + + + + + + + + + + + 2 ; 2 2 2 2 + # + + + + + + + + + + 2 + ; ; + + + + + + + ; 2.Q Q 1.I ",
"c.z c.z c.+ + + + + + + ; 2.I 2.b 2 + + + + + + + + + + + t.b 1.b 2.I 2.Q 2 + + + + + + + + + z c.b t.; + + + + + + + I 2.1.I 1.",
"z c.z c.I + + + + + + + + I 2.I 2.# + + + + + + + + + + ; I t.I 1.Q 2.Q 2.2 + + + + + + + + + c.z c.b ; + + + + + + ; 2.Q Q 1.I ",
"c.z c.b 9.2 + + + + + + 2 2.I 1.I 2 + + + + + + + + + + + 1.I 1.Q 2.Q 2.2.+ + + + + + + + + 2 z c.b c.; + + + + + + + 2.Q 2.I 1.",
"b 1.b t.I 2 + + + 2 2 2 0 I 2.I 1.2 2 ; 2 + + + + + + + ; I 1.I 2.Q 2.Q Q ; + + + + + ; 2 2 2 c.b t.b 0 ; ; 2 + + + ; I 2.Q 1.I ",
"c.b 1.I 1.2 + + ; Q 2.Q Q 2.I 1.b 2.Q 1.b 2 + + + + + + + 1.I 1.I 2.Q 2.2.; + + + + + I 9.I c.b t.I 1.I 1.I 2.; + + 2 2.Q 2.Q 1.",
"b c.I 1.I 2 + + + 2.Q Q 2.Q 2.Q 2.2.1.I 1.2 + + + + + + ; ( 1.( 2.I 2.I Q ; + + + + ; 1.Q 9.b 1.I 1.I 1.I 1.I ; + + ; Q 2.Q 2.I ",
"2.I 2.I 2.2 + + 2 Q 1.Q | | Q 1.Q 2.I 2.b 2 + + + + + + # 2.I 2.I 2.2.Q 2.2 + + + + 2 Q 1.Q 1.I 2.I 2.I 2.I 2.2 + + ; Q Q 2.Q 2.",
"I 2.I 2.I 0 2 2 2 2.Q 1.| | 1.Q 2.Q 2.Q 2.0 2 + # 2 2 # 0 b 2.I 2.I Q 2.Q 2 2 2 2 2 2 1.Q 1.I 2.I 2.I 2.I 2.Q 0 2 ; 2 2.2.Q Q Q ",
"2.I 2.I 2.I 2.I Q Q 1.Q Q 1.Q 1.2.Q T 2.2.Q b 2.Q 2.Q 2.2.2.Q 2.I 2.I Q I 2.Q 2.2.b 2.Q 2.Q 2.I 2.I 2.I 2.Q 1.Q Q Q 2.Q Q Q 2.Q ",
"I 2.I 2.I 2.| | | | Q 1.| Q 1.Q Q 2.Q Q Q 2.2.2.2.Q Q 2.Q I 2.Q 2.I 2.Q 2.Q 2.Q I 2.Q 2.Q 2.Q 2.I 2.I 2.I 2.Q Q Q 2.Q 2.1.2.Q 2.",
"Q 2.Q 2.Q 1.Q | Q 1.Q 1.| | | Q 2.Q 2.2.2.Q 2.Q Q 2.Q Q 2.I 2.I 2.I 2.Q I 2.I 2.Q Q 2.Q Q 2.Q 2.Q 2.Q 2.Q 2.Q 2.Q 2.Q 2.Q 2.Q 2.",
"2.Q 2.I 1.Q 1.Q 1.Q 1.Q | | Q 1.Q 2.b 2.Q 2.Q 2.Q 2.Q 2.I 2.I 2.I 2.Q 2.2.I 2.I 2.I 2.I 2.Q 2.Q 2.Q 2.I 1.Q 2.Q Q Q 2.Q 2.Q Q Q ",
"b 2.I 2.Q 1.Q 1.Q | | | | Q 1.Q 2.Q 2.b 2.I 1.Q 2.Q 2.Q 2.I 2.I 2.I 2.Q I 2.I 2.Q 2.I 2.I 2.Q 1.Q 1.I 2.Q 1.Q 1.2.Q Q 1.2.Q 1.Q ",
"1.I 2.I 1.Q 1.Q 1.Q | | | 1.Q 1.Q 2.Q 2.I 2.Q 9.b 2.I 2.I 2.I 2.I 2.Q I 2.I 2.I 2.I 2.I 2.I 1.Q 1.b 2.I 1.Q 1.Q Q 2.Q 2.Q 1.Q 1."
};
