/* XPM */
static char *pack_sprite_resize[] = {
/* columns rows colors chars-per-pixel */
"64 64 164 2 ",
"   c black",
".  c #000106",
"X  c #050506",
"o  c #060606",
"O  c #3E3E3E",
"+  c #001771",
"@  c #001774",
"#  c #434343",
"$  c #717171",
"%  c #747474",
"&  c #0021A4",
"*  c #0021A6",
"=  c #002EED",
"-  c #002FED",
";  c #0031F4",
":  c #0032F8",
">  c #0030FF",
",  c #0130FF",
"<  c #0031FF",
"1  c #0131FF",
"2  c #0032FF",
"3  c #0033FF",
"4  c #0738FF",
"5  c #0C39FF",
"6  c #0C3BFE",
"7  c #0E3BFE",
"8  c #0E3BFF",
"9  c #0F3BFF",
"0  c #0C3CFF",
"q  c #0E3CFE",
"w  c #0E3CFF",
"e  c #113BFE",
"r  c #113DFF",
"t  c #123DFE",
"y  c #123DFF",
"u  c #1140FF",
"i  c #1441FF",
"p  c #1D46FC",
"a  c #1E47FF",
"s  c #2148FB",
"d  c #224AFF",
"f  c #274EFD",
"g  c #274DFE",
"h  c #274EFE",
"j  c #274EFF",
"k  c #2952FF",
"l  c #3057FC",
"z  c #3154FF",
"x  c #3058FC",
"c  c #3358FF",
"v  c #335AFF",
"b  c #335BFF",
"n  c #3E60FC",
"m  c #3E60FD",
"M  c #3E60FE",
"N  c #3E61FF",
"B  c #5371F8",
"V  c #5371FA",
"C  c #5572FA",
"Z  c #5472FD",
"A  c #5472FF",
"S  c #5573FF",
"D  c #5875FA",
"F  c #5976FB",
"G  c #5976FD",
"H  c #5A77FF",
"J  c #5C77FF",
"K  c #627CF9",
"L  c #657EF8",
"P  c #607BFF",
"I  c #6981FF",
"U  c #6E86FF",
"Y  c #738AFE",
"T  c #7D93FB",
"R  c #7F94FB",
"E  c #7A93FF",
"W  c #8497F7",
"Q  c #889AF6",
"!  c #899CF9",
"~  c #8B9CFA",
"^  c #8C9CFA",
"/  c #8B9EFC",
"(  c #8D9FFF",
")  c #8FA0F4",
"_  c #8DA0FF",
"`  c #8EA1FF",
"'  c #92A5F5",
"]  c #98A8F4",
"[  c #9EACF5",
"{  c #94A7F8",
"}  c #95A7FF",
"|  c #97AAFC",
" . c #9AA9FE",
".. c #99ABFF",
"X. c #99ACFF",
"o. c #A3AFF4",
"O. c #A0AEF8",
"+. c #A2B0FC",
"@. c #A0B1FF",
"#. c #A4B2FF",
"$. c #A6B4FF",
"%. c #ABB8FF",
"&. c #B2BBF1",
"*. c #B1BCF2",
"=. c #B2BDF3",
"-. c #B4BFF3",
";. c #B0BCFE",
":. c #BEC7ED",
">. c #B5C0F7",
",. c #BAC4F9",
"<. c #BBC5F9",
"1. c #BDC6F8",
"2. c #BCC6F9",
"3. c #B8C3FC",
"4. c #BAC4FF",
"5. c #BBC6FF",
"6. c #BDC9FF",
"7. c #C5CFF6",
"8. c #C3CBF8",
"9. c #C4CCF9",
"0. c #C4CDF9",
"q. c #C7CFF8",
"w. c #C2CBFE",
"e. c #C8D0F1",
"r. c #C9D0F5",
"t. c #C8D2FA",
"y. c #CED6FB",
"u. c #CCD6FF",
"i. c #D3DAF3",
"p. c #D1D8F4",
"a. c #D4DCFF",
"s. c #D7DFFF",
"d. c #DCE3FC",
"f. c #DDE3FC",
"g. c #DDE4FF",
"h. c #E1E3EE",
"j. c #E2E4EE",
"k. c #EDEDED",
"l. c #EEEEEE",
"z. c #EFEFEE",
"x. c #F0EFEE",
"c. c #F0F0EE",
"v. c #E7EAF6",
"b. c #ECECF0",
"n. c #E8EBF8",
"m. c #EDF0FF",
"M. c #F1F1F1",
"N. c #F0F1F3",
"B. c #F4F4F4",
"V. c #F5F5F4",
"C. c #F6F6F4",
"Z. c #F7F7F5",
"A. c #F4F5F6",
"S. c #F6F6F6",
"D. c #F7F7F7",
"F. c #F8F8F7",
"G. c #F9F9F9",
"H. c #FAFAF9",
"J. c #FCFCF9",
"K. c #F8FAFF",
"L. c #F9FBFF",
"P. c #FBFCFF",
"I. c #FEFEFF",
"U. c #FFFFFF",
/* pixels */
"U.U.U.k.k.U.U.U.k.k.k.U.U.M.k.k.U.U.U.k.k.U.U.U.k.k.D.U.U.x.k.k.U.U.D.k.k.D.U.U.k.k.D.U.U.x.k.k.U.U.U.k.k.U.U.U.k.k.D.U.U.D.k.k.",
"U.U.D.k.k.D.U.U.k.k.D.U.U.D.k.k.U.U.D.k.k.D.U.U.k.k.D.U.U.D.k.k.U.U.U.k.k.U.U.U.k.k.D.U.U.D.k.k.U.U.D.k.k.D.U.U.k.k.M.U.U.M.k.k.",
"D.D.D.D.c.D.D.U.D.D.D.D.D.D.D.D.D.F.D.k.D.D.U.D.D.D.j.( ( ( Q Q ( ( ( Q Q b.D.D.c.D.D.U.D.D.D.x.U.D.D.D.x.D.D.U.D.D.D.D.D.D.D.b.",
"k.k.D.U.U.D.k.k.U.U.D.k.k.D.U.U.k.k.D.U.U.k.k.k.U.U.d., 3 3 3 3 3 3 3 3 , p.k.k.U.U.D.k.k.D.U.U.k.k.M.U.U.D.k.k.U.U.D.k.k.U.U.U.",
"k.k.D.U.U.b.k.k.U.U.U.k.k.D.U.U.k.k.D.U.U.D.c.x.U.U.d., 3 3 3 3 3 3 3 3 , p.c.c.U.U.D.x.k.D.U.U.k.k.D.U.U.b.k.k.U.U.D.k.k.D.U.U.",
"D.U.D.D.D.D.D.D.D.k.D.D.D.D.D.D.D.U.D.D.D.8.s d p p p 3 3 3 3 3 3 3 3 3 3 p s d d d w.F.D.D.D.D.U.D.D.D.D.D.D.U.k.D.D.D.D.D.x.D.",
"U.U.D.k.k.U.U.U.k.k.M.U.U.b.k.k.U.U.F.k.k.>.3 3 3 3 3 3 3 3 3 3 3 3 3 3 3 3 3 3 3 3 1.U.U.D.k.k.U.U.D.k.k.D.U.U.k.k.D.U.U.D.k.k.",
"U.U.D.k.k.F.U.U.k.k.D.U.U.D.k.k.U.U.F.&.o.T 3 3 3 3 3 3 3 3 3 3 3 3 3 3 3 3 3 3 3 3 R %.3.c.k.k.U.U.D.k.k.D.U.U.k.k.M.U.U.D.k.k.",
"k.k.D.U.U.D.k.k.U.U.D.k.k.U.U.U.k.k.D.x 3 3 3 3 3 3 3 3 3 3 3 3 3 3 3 3 3 3 3 3 3 3 3 3 k U.U.U.k.k.M.U.U.D.k.k.U.U.D.k.k.D.U.U.",
"k.k.D.U.U.D.k.k.U.U.U.k.k.F.U.U.x.x.D.x 3 3 3 3 3 3 3 3 3 3 3 3 3 3 3 3 3 3 3 3 3 3 3 3 k D.U.U.k.k.D.U.U.D.k.k.U.U.D.k.k.U.U.U.",
"D.b.D.D.D.D.D.M.D.U.D.b.D.D.D.D.>.m m 5 3 3 3 3 3 3 3 3 3 3 3 3 3 3 3 3 3 3 3 3 3 3 3 3 e V b 3.D.M.D.D.D.D.D.b.U.D.D.D.D.D.D.D.",
"U.U.D.k.k.D.U.U.k.k.D.U.U.D.k.k.#.3 3 3 3 3 3 3 3 3 3 3 3 3 3 3 3 3 3 3 3 3 3 3 3 3 3 3 3 3 3 [ U.U.U.k.k.D.U.U.k.k.D.U.U.D.k.k.",
"U.U.D.k.k.D.U.U.k.k.k.U.U.D.k.k.#.3 3 3 3 3 3 3 3 3 5 x x x x x 3 3 3 3 3 3 3 e x x x x k 3 3 o.U.U.D.k.k.D.U.U.k.k.D.U.U.D.k.k.",
"D.M.D.U.D.D.D.k.U.D.D.D.x.D.D.D.O.3 3 3 3 3 3 3 3 3 d U.U.U.U.U., 3 3 3 3 3 3 Z U.U.U.U.u.3 3 O.D.k.D.U.D.D.D.M.D.D.D.M.M.D.D.D.",
"k.k.x.U.U.D.k.k.U.U.U.k.k.D.U.U.[ 3 3 3 3 3 3 3 3 3 d U.U.U.U.U.3 3 3 3 3 3 3 Z U.U.U.U.u.3 3 #.k.x.M.U.U.D.k.k.U.U.U.k.k.U.U.U.",
"k.k.D.U.U.D.k.k.U.U.D.k.k.U.U.U.[ 3 3 3 3 3 3 3 U #.;.U.U.U.U.U.#.#.J 3 , ` #.w.U.U.U.U.D.#.O.Y D D D.U.U.D.k.k.U.U.D.k.k.D.U.U.",
"U.U.U.k.k.D.U.U.k.k.D.U.U.D.k.k.#.3 3 3 3 3 3 3 %.U.U.U.U.U.U.U.U.U.( 3 , d.U.U.U.U.U.U.U.U.U.J 3 e F.c.b.U.U.U.k.k.k.U.U.z.k.k.",
"U.U.D.k.k.D.U.U.k.k.z.U.U.z.h.h. .3 3 3 3 3 3 3 %.U.U.U.U.D.k.h.b.b.W 3 , d.U.U.U.U.k.h.k.k.k.B 3 e U.x.k.C.U.U.k.k.D.U.U.D.b.k.",
"D.U.D.k.D.D.U.D.D.D.D.C.D.D.5 3 3 3 3 3 3 3 3 3 %.U.U.U.U.$ o o o o + 3 , d.U.U.U.U.O o o o o & 3 e D.c.D.D.U.D.D.D.D.D.D.D.D.D.",
"k.k.D.U.U.D.k.k.U.U.D.k.k.U.e 3 3 3 3 3 3 3 3 3 $.U.U.U.U.$ o o o o + 3 3 d.U.U.U.U.O o o o o & 3 e D.U.U.z.k.k.U.U.D.k.k.D.U.U.",
"k.k.b.U.U.D.k.k.U.U.D.k.k.U.i 3 3 3 3 3 3 3 3 3 $.U.U.U.U.$ o o o o + , , d.U.U.U.U.O o o o o & 3 e D.U.U.D.k.k.U.U.D.k.k.D.U.U.",
"U.F.D.D.k.D.D.D.D.D.D.D.C.C.e 3 3 3 3 3 3 3 3 3 $.U.U.U.U.$ o o o o + , 3 d.U.U.U.U.O o o o o & 3 i C.D.c.D.U.C.z.D.D.D.U.D.k.D.",
"U.U.U.k.k.D.U.U.k.k.c.U.U.D.e 3 3 3 3 3 3 3 3 3 #.U.D.U.U.$ o o o o + 3 3 s.D.U.U.U.O o o o o & 3 e F.x.k.D.U.U.k.k.D.U.U.D.k.k.",
"U.U.D.k.k.U.U.U.k.k.D.U.U.D.i 3 3 3 3 3 3 3 3 3 5 e k U.U.D.k.k.= = = 3 3 e 5 P U.U.k.k.:.= = 3 3 e F.c.k.U.U.U.k.k.x.U.U.D.k.k.",
"k.k.D.U.U.D.k.k.U.U.D.k.k.F.e 3 3 3 3 3 3 3 3 3 3 3 d U.U.U.U.U., , 3 3 3 3 3 Z U.U.U.U.u.3 3 3 3 e D.U.U.k.k.k.U.U.D.k.k.D.U.U.",
"k.k.D.U.U.k.k.k.U.U.U.k.k.U.e 3 3 3 3 3 3 3 3 3 3 3 i  . . . . .3 3 3 3 3 3 3 z  . . . .R 3 3 3 3 e c.U.U.D.k.k.U.U.D.k.k.U.U.U.",
"k.D.D.D.U.D.M.D.D.D.D.D.c.F.e 3 3 3 3 3 3 3 3 3 3 3 3 3 3 3 3 3 3 3 3 3 3 3 3 3 3 3 3 3 3 3 3 3 3 i D.D.D.D.D.D.U.D.D.D.D.D.D.D.",
"U.U.D.k.k.D.U.U.k.k.M.U.U.D.i 3 3 3 3 3 3 3 3 3 3 3 3 3 3 3 3 3 3 3 3 3 3 3 3 3 3 3 3 3 3 3 3 3 3 e U.k.k.D.U.U.k.k.D.U.U.D.k.k.",
"U.U.D.k.k.D.U.U.k.b.M.U.U.D.e 3 3 3 3 3 3 3 3 3 3 3 3 3 3 3 3 3 3 3 3 3 3 3 3 3 3 3 3 3 3 3 3 3 3 i F.x.k.D.U.U.k.k.b.U.U.D.k.k.",
"M.D.D.D.D.D.k.D.D.U.D.D.c.D.e 3 3 3 3 3 3 3 3 3 3 3 3 3 3 3 3 3 3 3 3 3 3 3 3 3 3 3 3 3 3 3 3 3 3 e D.U.D.D.D.k.D.U.D.D.z.D.D.D.",
"k.k.D.U.U.D.k.k.U.U.U.k.k.D.e 3 3 3 3 3 3 3 3 3 3 3 3 3 3 3 3 3 3 3 3 3 3 3 3 3 3 3 3 3 3 3 3 3 3 e c.U.U.D.k.k.U.U.D.k.k.D.U.U.",
"k.k.D.U.U.D.k.k.U.U.D.k.k.U.e 3 3 3 3 3 3 3 3 3 3 3 3 3 3 3 3 3 3 3 3 3 3 3 3 3 3 3 3 3 3 3 3 3 3 5 D.U.U.D.k.k.U.U.U.k.k.U.U.U.",
"U.U.D.k.k.D.U.U.k.k.D.U.U.C.i 3 3 3 3 3 3 3 3 3 3 3 3 3 3 3 3 3 3 3 3 3 3 3 3 3 3 3 3 3 3 3 3 3 3 e U.k.k.U.U.U.k.k.k.U.U.z.k.k.",
"U.U.F.k.k.D.U.U.k.k.D.U.U.C.e 3 3 3 3 ) &.Q 3 3 3 3 3 3 3 L &.&.3.3.L 3 3 3 3 3 3 3 Q 3. .3 3 3 3 e F.k.k.D.U.U.k.k.D.U.U.D.k.k.",
"U.D.D.D.D.D.D.U.D.c.D.F.F.F.e 3 3 3 3 q.D.1.3 3 3 3 3 3 3 Q D.M.U.U.( 3 3 3 3 3 3 3 3.D.u.3 3 3 3 e F.D.x.D.D.U.D.D.D.D.D.D.D.D.",
"k.k.b.U.U.D.k.k.U.U.F.x.k.F.e 3 e f d a.U.q.f d 5 3 3 3 3 ( U.U.k.k.W 3 3 3 3 5 f k w.k.e.d f e 3 5 D.U.U.D.k.k.U.U.D.k.k.D.U.U.",
"k.k.D.U.U.c.k.k.U.U.D.k.k.D.e 3 D c.D.U.U.D.k.k.Z 3 3 3 3 ( U.U.k.k.W 3 3 3 3 B U.U.D.k.k.D.U.J 3 e c.U.U.D.k.k.U.U.D.k.k.D.U.U.",
"U.D.D.k.D.D.D.U.D.c.D.U.D.D.e 3 D F.F.c.D.D.D.D.Z 3 3 3 3 ( D.x.F.U.Q 3 3 3 3 Z D.D.D.D.D.D.D.J 3 e D.D.D.D.D.U.D.D.D.D.U.D.D.b.",
"U.U.U.k.k.D.U.U.k.k.b.U.U.D.' ' 6.U.U.k.k.D.U.U.=.' '  .{ q.k.k.U.U.u.' ' {  .3.k.k.D.U.U.D.k.=. .#.F.x.k.C.U.U.k.k.D.U.U.D.k.k.",
"U.U.D.k.k.U.U.U.k.k.D.U.U.D.k.k.U.U.F.k.k.U.U.U.k.k.D.U.U.D.k.k.U.U.U.k.k.U.U.U.k.k.z.U.U.x.k.k.U.U.F.k.k.D.U.U.k.k.k.U.U.D.k.k.",
"k.k.k.U.U.D.k.k.U.U.U.k.k.D.U.U.k.k.c.U.U.D.k.k.U.U.D.k.k.U.U.U.k.x.D.U.U.D.k.k.U.U.D.k.k.U.U.U.k.k.D.U.U.D.k.k.U.U.D.k.k.D.U.U.",
"k.k.D.U.U.D.k.k.U.U.D.k.k.U.U.U.k.k.D.U.U.D.k.k.U.U.D.k.k.D.U.U.k.k.D.U.U.c.k.k.U.U.U.k.k.D.U.U.k.k.k.U.U.D.k.k.U.U.D.k.k.U.U.U.",
"D.D.D.D.D.D.D.k.D.D.D.k.D.D.D.U.D.D.D.D.D.D.D.k.D.U.D.D.D.D.D.U.x.D.D.D.D.D.D.D.D.U.D.D.k.D.U.D.D.D.D.D.D.D.D.b.D.D.D.D.D.D.D.D.",
"U.U.D.k.k.D.U.U.k.k.D.U.U.k.k.k.U.U.D.k.k.D.U.U.k.k.M.U.U.M.k.k.U.U.D.k.k.D.U.U.k.k.b.U.U.D.k.k.U.U.U.k.k.D.U.U.k.k.D.U.U.D.k.k.",
"U.U.D.k.k.D.U.U.k.k.D.U.U.D.k.k.U.U.U.k.k.D.U.U.k.k.D.U.U.D.k.k.U.U.D.k.k.D.U.U.k.k.D.U.U.x.k.k.U.U.D.k.k.D.U.U.k.k.k.U.U.D.k.k.",
"b.D.D.D.U.D.k.D.D.U.D.D.M.D.U.D.D.k.D.D.U.D.k.D.D.U.D.M.M.D.U.D.x.D.D.D.D.D.b.D.U.F.D.D.D.D.U.D.M.D.D.D.D.D.D.k.U.D.D.D.M.D.D.D.",
"k.k.D.U.U.D.k.k.U.U.U.b.k.D.U.U.k.k.k.U.U.D.k.k.U.U.U.k.k.D.U.U.k.k.D.U.U.D.k.k.U.U.D.k.k.D.U.U.k.k.D.U.U.D.k.k.U.U.U.k.k.D.U.U.",
"k.k.M.U.U.D.k.k.U.U.D.k.k.D.U.U.k.k.D.U.U.D.k.k.U.U.D.k.k.D.U.U.k.k.D.U.U.D.k.k.U.U.D.k.k.D.U.U.k.k.k.U.U.D.k.k.U.U.D.k.k.U.U.U.",
"U.U.U.k.k.D.U.U.k.k.k.U.U.D.k.k.U.U.U.k.k.D.U.U.k.k.D.U.U.D.k.k.U.U.D.k.k.D.U.U.k.k.D.U.U.b.k.k.U.U.U.k.k.U.U.U.k.k.D.U.U.D.k.k.",
"U.U.D.k.k.D.U.U.k.k.D.U.U.D.k.k.U.U.D.k.k.U.U.U.k.k.D.U.U.k.k.k.U.U.D.k.k.D.U.U.k.k.x.U.U.D.k.k.U.U.D.k.k.D.U.U.k.k.M.U.U.b.k.k.",
"D.D.D.D.D.D.D.U.D.D.D.D.D.D.b.D.D.D.D.x.D.D.D.U.b.D.D.D.U.D.M.D.U.D.D.D.D.D.U.D.D.D.D.D.U.D.M.D.D.D.D.D.k.D.U.D.D.D.D.D.D.D.D.D.",
"k.k.D.U.U.D.k.k.U.U.D.k.k.D.U.U.k.k.D.U.U.k.k.k.U.U.D.k.k.D.U.U.k.k.M.U.U.D.k.k.U.U.D.k.k.D.U.U.k.k.D.U.U.D.k.k.U.U.D.k.k.D.U.U.",
"k.k.D.U.U.D.k.k.U.U.U.k.k.D.U.U.k.k.D.U.U.D.k.k.U.U.D.k.k.D.U.U.k.k.D.U.U.D.k.k.U.U.D.k.k.D.U.U.k.k.D.U.U.M.k.k.U.U.D.k.k.D.U.U.",
"D.U.D.D.k.D.D.D.D.k.D.D.U.D.k.D.D.D.D.D.b.D.U.D.D.D.D.D.D.D.k.D.D.U.D.k.D.D.D.D.M.D.D.D.D.D.M.D.D.U.D.D.D.D.U.D.k.D.D.D.D.D.D.D.",
"U.U.D.k.k.D.U.U.k.k.k.U.U.D.k.k.U.U.U.k.k.U.U.U.k.k.M.U.U.D.k.k.U.U.D.k.k.D.U.U.k.k.D.U.U.D.k.k.U.U.D.k.k.D.U.U.k.k.D.U.U.D.k.k.",
"U.U.D.k.k.U.U.U.k.k.D.U.U.D.k.k.U.U.D.k.k.D.U.U.k.k.D.U.U.D.k.k.U.U.U.k.k.U.U.U.k.k.b.U.U.D.k.k.U.U.D.k.k.D.U.U.k.k.M.U.U.M.k.k.",
"k.k.D.U.U.k.k.k.U.U.D.k.k.D.U.U.k.k.D.U.U.D.k.k.U.U.U.k.k.D.U.U.k.k.k.U.U.b.k.k.U.U.U.k.k.U.U.U.k.k.M.U.U.D.k.k.U.U.D.k.k.D.U.U.",
"k.k.k.U.U.D.k.k.U.U.U.k.k.U.U.U.k.k.b.U.U.D.k.k.U.U.D.k.k.D.U.U.k.k.D.U.U.D.k.k.U.U.D.k.k.D.U.U.k.k.D.U.U.D.k.k.U.U.D.k.k.U.U.U.",
"D.D.D.D.D.D.D.D.U.D.D.b.D.D.D.D.D.D.D.D.D.D.x.D.D.D.D.k.D.D.U.D.D.D.D.D.D.D.D.D.D.D.D.b.D.D.D.U.D.M.D.D.D.D.D.b.U.D.D.D.D.D.D.D.",
"U.U.U.k.k.D.U.U.k.k.D.U.U.D.k.k.U.U.D.k.k.D.U.U.k.k.D.U.U.D.k.k.U.U.D.k.k.D.U.U.k.k.D.U.U.x.k.k.U.U.U.k.k.D.U.U.k.k.D.U.U.D.k.k.",
"U.U.D.k.k.D.U.U.k.k.k.U.U.D.k.k.U.U.D.k.k.D.U.U.k.k.D.U.U.D.k.k.U.U.D.k.k.D.U.U.k.k.D.U.U.D.k.k.U.U.U.k.k.D.U.U.k.k.D.U.U.D.k.k.",
"M.D.D.D.D.D.D.b.U.D.D.D.c.D.D.D.D.M.D.D.D.D.D.D.U.D.D.D.D.D.D.D.b.D.D.D.U.D.k.D.D.D.D.D.k.D.U.D.D.k.D.D.D.D.D.M.D.D.D.M.M.D.D.D.",
"k.k.D.U.U.D.k.k.U.U.U.k.k.D.U.U.k.k.D.U.U.D.k.k.U.U.D.k.k.D.U.U.k.k.D.U.U.D.k.k.U.U.D.k.k.D.U.U.k.k.M.U.U.D.k.k.U.U.U.k.k.U.U.U.",
"k.k.x.U.U.D.k.k.U.U.D.k.k.U.U.U.k.k.D.U.U.k.k.k.U.U.D.k.k.U.U.U.k.k.x.U.U.D.k.k.U.U.U.k.k.U.U.U.k.k.D.U.U.D.k.k.U.U.D.k.k.D.U.U."
};
