/* XPM */
static char *purple_f[] = {
/* columns rows colors chars-per-pixel */
"64 64 47 1 ",
"  c #37242C",
". c #3B272E",
"X c #3D282F",
"o c #3D2931",
"O c #432D35",
"+ c #482F37",
"@ c #452F38",
"# c #492F38",
"$ c #453037",
"% c #493037",
"& c #463139",
"* c #4B343C",
"= c #51363E",
"- c #51383F",
"; c #4D3740",
": c #4E3941",
"> c #533740",
", c #533B44",
"< c #583E46",
"1 c #563F48",
"2 c #583F48",
"3 c #56414A",
"4 c #5C434C",
"5 c #5E4650",
"6 c #5D4852",
"7 c #61454E",
"8 c #614750",
"9 c #644A53",
"0 c #694D57",
"q c #674E58",
"w c #6A4F58",
"e c #675059",
"r c #6D525C",
"t c #71545E",
"y c #6F5761",
"u c #6F5861",
"i c #735660",
"p c #755963",
"a c #795C66",
"s c #775E68",
"d c #7C5E69",
"f c #7D606A",
"g c #82636E",
"h c #846670",
"j c #866973",
"k c #8A6B75",
"l c #896E79",
/* pixels */
"ss&1ls11yy&19r6ufs&<ls3<yy&<9y5yff&:ls3<iy&<9r6yff&;ls3:ys&<9r3s",
"g4O4wro*O*#O9r&fs8O4qrO*O*&o8tOff6O4er&&O*&o4sOff9o30t&*O%%O4sof",
"r:<452.=4tw&11#:r31454.*4rr&12O;y2<464X*4tt&34O*r4<494.*4rt&34o:",
"*<*fgr&=wiwgks:o&<&ffr&=rtrfka<.*;&fgt&*wtrfka<.*:&fst**wtraka3X",
"tiOkfr.*54;jaiO*riOksr.*44:jsiO*waokst.*4<*gasO%raokfs.*53:fasO+",
"js#wj<28is59si.8kf#9k<<7as99is 4jf&9k<<7sa99ts 7gg&6k<<4sf99sa.4",
"09*46:48i4<44:.>99*49<49t4<441 <09;45<28s4:443 *w9-45<37t4:43< =",
".O5si*885q;*sjr;XO4ai&4940;*ijr:.O4ai*8969:-rkr<.O3at*7949<*ykr-",
"o3rga4f<5i;wjpsr.<rfa4f<5i*0gasr.<rfa3g<4s*9gaat.<rgf3g<5y;9gaai",
"<9agi<*.8##8wtpp<9sgs3%O9#&7rtaa<4ags3%O9O&7ttaa<7aha3*X9&&4ttaa",
"-4ta944=i1O458r2<4ts747*s<O249r3<7ss947*t4O449r3:4ta837*s2o449w2",
"O*$<4rs*w2isi8#*&O*<40a%0<sat7O&#O*>4ra&0<tst8O*&$%<3rf$0<iai9O*",
"ys<985oOi4sy8*#*rs4796oXr4fi8=*Ors4796o.t4fr9%*$rs3879o.r4at0%=O",
"fg49t;r487ji72#<fg49t-r484ks72*<ff49i*r494gs73&<fh78s*r544ka7<;*",
"&O=trqii##ji8&.#O&-rr9rs&Ofs7*.O&&*rrwis$ogs9%XO$$*rr9ta$Ogs9&.O",
"i9O<4s<&<:w#*Oows9O<4f<*--rO*OXwiqO<4f<*=<r&%+Xwt0O<4f3**<r&*+.r",
"aiO*ji;>w0.*771sstO#js;=w0O+79<sasO#ji>=00.*49<taaXOjs:*00o+70<t",
"s5O4qr#*#*#O8t#sg8O4wrO#+*OO8tOss8O2wr#*+**X9ioag0O4rtO*+*OO7iOa",
"i<<451.*4rr*22O<t1<444.*4wr&<4O>i2<255.*70t&<4O<r3<444.%70t&14O:",
"*>*ffr#=wiwska>.#>&fgw*=wirfka<.*>*gsr**0trska<.%<$agt**0ttaka<.",
"wy#ksr.*44:jatO%riokst.*44:gasO%wiOjsi *84;gasO+0aokfi.*44;jasO+",
"js#rk118ts99ss.7jf&wk<<7ts99ts 7jg#9j<<4ia99ss 4gg$9k4<4is99sa.4",
"w9*29>29s3<34<.<w9;29>28s43443 <w9;29<28i5<443 <r9-36<37i5:443 =",
".O5si*7859*<rgw*.O4si*8849:-rgw-.O4si*8859;;if0-.O4ai*4949<;rgr;",
".1rga4f<6s&wgaar.1rfa2g<5s*9gaar.<rsg2g24s-9gaat <rga3f45s;9gaai",
"<8aji4*o9#&8ttap<8ajs<*.9#&7ttaa:8afi4*.0%$4ttaa:7aga4*X9O#4ttas",
";8ia747*i<O438r3<8ia947*i<O438r3<4ss947*t3X449t3<4st947*i2o449r2",
"#**>4rs*0<tss7&*##;>40a*01tss8%*&#*<40a*w3tst9$*&$*<40f$01isi9##",
"rs<889oot4at8=*Oei1889O.t4at9**&rs4749O.t4fr0**Ors3779$Xr4at9**O",
"ff49r*w194gs73*<ff49i;w494gs73*-ag49s*r484ks73&<fh47s*0444ks8<;>",
"&&<rrwis&$gs7*.O&&>rwwts&Ogs7*XO&*-rr9rsOOgs7*XO$&-rr9ta&Ogs9*.O",
"i9o<8s<*<=r&%OXriqO15s1*-<r&%+Xwt9O<4f<*=-r*%OXwt0O<4f3**<r**O.w",
"siO;ji;>w8O*49<ssiO*ji>=00.*49<sasOOjs;=00O+20<ispO#js>*wwO#29>i",
"g8O2rw##**OO9tOsg8O2rr#*#=Oo8toaa0O4wtO*+=OO8tOaswO2wi#&#*OO8pOs",
"t>1252.=70w&<<O<i1<452.*4wt#<2O<t4<444.*40t&<2O<i4>444.#2wt#<2O<",
"#>*sjw#=0trska=.#;;sfr#*wtrska<.*-$agtO=wtraka<.*;#sgt**wiwsks1.",
"ri#jsw.;84<gasO*wpOkst.;84<fasO%0sokai.*44:gas$O0ioksi.*82;fsp##",
"js#wj124ta89is 7jsOwj1<2ta89is 4gf#qk2<4ts99ta.4gj#9l4<4ysq9ps 7",
"ww;19<28i51463 <ww*29<48i41493.<ww;15<28s43473 <ww;<8<28i5:555 =",
".O5si*7559;;if9*.O4si*7555<;rf0*.O4ai*7846<:rf9<.O4si*4858<*rfw>",
".1wgs2g26s*0gaaw.1wga4g26s*9gsaw.:rga3g37s*0gaat.<0gs2g45i;8jaai",
">8agp2#O9O&8ttas<8agp2*.9O*7ttss:9ags3*X0O&7rtaa*7aga4*.9##5rips",
"15is872>t<O<49t3:4sa847*t<O<49t4<4sa944*t<O349r3<4sa947*i2O228r7",
"##;14ws#r<rsi7**&**<4wa*r1rsi9+*&#*<40f&w3rat9**&$*<40s&w2rsi0##",
"wi288q#.t4ft8**$ri<789&.t4ft9**Ory<799&Xt4ft9**$rs<78w&.t4siw#*#",
"gg49r;q194ks74&<sg49t*w494ks72*<sg49i*9487gs7<*-fg47i*q487js82;;",
"&*<wr9is&$gi7*oO**<rt9rsOOgi7*.O**<rr9rs$Ogs8*XO&*-rt9ts#ogi8#.O",
"r9O<5s<*=<r*%Oo0t9O<4s4*=<t**O.0t9o<4f4---r-*OX0t9O<4s4**<i;*O.0",
"stO*ji;=w8O+27<saiO*gs<*09o+281asio#gs;=00o%49-sssOOga<*00O+20>i",
"g8O2yrO***OO0t#af9O2rtO***OO8y#sgqO2ri#***OO7tOagwO<rt#&**OO8pOs",
"i1<442.*4rr#<<O1i<<444.*70tO<1O1i2<444.#40tO<2O<i4=444.+40tO<1O<",
"*;*sgw#>0trajs<.*:*sfr#*0trajs<.#>*sfr**0traka=O*;*agr**0twaks<.",
"wtOksr.;84:jaiO*0iOkat.=84:jai##wpOjsi.*94:gasO+0iokss *55:fsa*+",
"ks#rk2<4rs5qis 7jsOrk<=4ra8qis 4js#wk2<1ra80ss.3gg&9k2<4rs99is.2",
"ww*29<29i8<493.<rq*<9<49s7<593.<rw;<9<49i5<493 <rw><9<49i8:594.=",
".O4at&4459:;rs9*oO4at*4448;*rf9;.O1ai*4455<*rs9*.O3at*4459<*rsw*",
".<rga4g<5s;qgsaw.:rgs4g45s*0gsar.,wgg2j24a-9gaat <wgs1g75s;9jsai",
":9agi<*O8##8tiaa-9sgs2%O9#&8ttas:8igi2;.9%&8ttsa:7aga4*.8##7rips",
"<4sa94<*i<O128r4<4sa743=i<O220r415ss877#t3O349t4<4aa947*i1O128r7",
"&**<40s*w2rss8**#**<40a*w1tai8*&&&><4ws#03was8**&&*<40s&w1wapq*#",
"rr<99q&Oi4si8=##rr185r&.t4si9=*Owi278w#.t4fr0**Ort475w&.i4si9**O",
"fg49r*9397ki72&<sj49r*9485ja4<*<fg48i*q394ks73*:sg47i*q484js8<;>",
"&*<0t9rs#&ji7*.O**<rt9rs&Ogi7*oO*;<wr9rs&Ogs7*oO**-tt8ts#oji8#.O",
"r9O<4s4**<r;*O.wr7O24f4*>>i;*O.0r9O24f4*=-t**OX0r9O<4f4**<i>*O.0"
};
