/* XPM */
static char *space_w[] = {
/* columns rows colors chars-per-pixel */
"64 64 74 1 ",
"  c #574D9E",
". c #594D9E",
"X c #5C529D",
"o c #614E9E",
"O c #635396",
"+ c #635C94",
"@ c #62539D",
"# c #635898",
"$ c #726A9F",
"% c #574CA2",
"& c #584CA2",
"* c #574BAA",
"= c #584BA9",
"- c #5D52A4",
"; c #5D58A5",
": c #5D53A8",
"> c #5F59AC",
", c #5949B3",
"< c #624FA6",
"1 c #6155A4",
"2 c #6954A2",
"3 c #6359A4",
"4 c #685DA7",
"5 c #6155A9",
"6 c #655AAB",
"7 c #6A5EAD",
"8 c #715FA0",
"9 c #705FAD",
"0 c #665DB0",
"q c #6A5EB0",
"w c #715FB1",
"e c #6B60AD",
"r c #6768A8",
"t c #7264AE",
"y c #7A70AF",
"u c #6C61B1",
"i c #7365B2",
"p c #7965B5",
"a c #7569B4",
"s c #7C6BB6",
"d c #776BB8",
"f c #7D6DB9",
"g c #7B70B4",
"h c #7E70BA",
"j c #7F71C0",
"k c #826AAB",
"l c #816EB7",
"z c #826EB9",
"x c #896FBD",
"c c #8170B7",
"v c #8571BC",
"b c #8A72BD",
"n c #8E78BF",
"m c #9074BF",
"M c #8C74C2",
"N c #9276C3",
"B c #9379C4",
"V c #9A7BC7",
"C c #967BC8",
"Z c #9D7DCB",
"A c #997FD0",
"S c #A17CCC",
"D c #8B88A5",
"F c #8D85BC",
"G c #9D81BE",
"H c #9B93BD",
"J c #BAB6B5",
"K c #9D80CE",
"L c #9F9ED8",
"P c #A382CE",
"I c #AA99CF",
"U c #A583D0",
"Y c #A885D2",
"T c #AD89D6",
/* pixels */
":6&&&&&&&&&&&&&&%&&&&%&&&%&&&%&&&&&%&&%&&&&&%&&&&&&&&&&&&&&&%&&&",
"&&&&&&&&&&&&&&&&&&&&&&%&&&&&&%%=&&&%&%%&%&%&&%&&%&%&@1&&&&&&&&%&",
"&&&&&&&&q&&&&&&&&&&&&%&&&&&%&&%&&&&&&%&&&&&&&&&%&%&& 1 &&&&&%%&&",
"&&&& 3&&&&&&&&&&&&&&&&&&%&&&%&&&&&&&&&&%&&&&w=&&&&&&&&&&&&&&&&&&",
"&&&&&6&&&&&&&t &%%&&&&&&&&&&&&&%%&& %&&%&&&&&%&&&&%%%&&&  7<&& &",
"%&u%&&&&&&&&=%& $@&%&&%&=&&%&%%&&&% &%&&&&%&&&&&%&%%&&&&&  &&& &",
"&%&&&&&&%&&%%%=&Hy&%%&&&&&&&&&%&&%& &&%&&%&%&&& 1 &%<q&&=& &  & ",
"&&&&&&&&&&&&%&&& &&&%&%&&%&&&&&&&&&w%&%&&&&&&&&&7 &%&&1&&  &&&&&",
"&&&&&%%&&&  &&&&%%&&&&&&%=&&&&&&%&&%&&&&&&&&&&&%%  :6qq7<t &&&&&",
"&&&&&&&%&% 7&&&&&%&%&&&&&&&%&&%&&%&%&&&&&&&&&&&&& :eee7e7 && & &",
"&&&&%&&&&&%&=&&&&&&%%&%&&&&&&&&&%%%<&&&&&&&&  :7eueeaeee7X%2G&&&",
"&&&=%&&&&&&&&&&&&&&&&&=&&&&&&%%&%%%%&&& &&&& :7eeeeeeee77e>Xk& 1",
"&&&q&&&&&&&&&&&&&&&&&%&&%&&&&%&&%%%%<%& 2:6e6eeeeaaetsxs77e=& &&",
"&&&&&&%&&&&&&&&&&=&&&&&&&&&%&&&&<%%%%%& 67ueeeiflxlgllscbCi6:1& ",
"&&&&&&&&&&&&&&&&&%&&&&&%&&&&&&&&%%%%.<113ueeeiffllxBBZZZSSxee71 ",
"&&&&&&&&&&&&&&&&&%&&%&&&&%&&%&&&...%<777eeeetccxxlZZZZZZSSbbi96 ",
"&&&&&%&&&&&%&&&&&%%&&&%&&&&&&&%%&1i1eeeiieuifcllxNZZZSZSSZZZAM65",
"&&&&&&&&%&&&&&&&&&&&&&&&&&& &&%%%%667eeuaeaclbblbZZTZZZASASZAZi6",
"&&&&&&&=&&&&&&&&=%&&&&&&&&&&&&&%%%&&:eee7eeissxfcCZCVZSSSSSSSZi5",
"&&&&&&&%&&%&%&&&&&&&&&&%&&&&&&%u% &&%X156eeeeeppiiiitpMMpppMxp7&",
"&&&&%&&&&&&&&&:&&&&&%&&&&&  &&  %63;5%&&&555<<56quee>&:6606:&5=&",
"&&&&%&&&&&%&%&q&&&&&&&&&&&@7  71% Lr%%<: ::&%%.%5661%%&&&  &&&&&",
"&%&5q&&&&&&&&%%&&&&= e&%&&&&&&&&&&; %%@1 ::%%%%%%%%%%: %&:&o& &&",
"&=&%%q&&&&&&& 6677&& &&& &&&&&& ; &e&%&%%%%%%%%<%%&& X && &&   :",
"&%&&&&&&&&&&%3ue7q7& &&t &&&&6&&e   &&&&.%%%%%%%&&&& 7 &&&   & &",
"&&&&&&&%&&&%:ee77e776:&  &&&&5& e  34 &7<<%%%%%%&&&&&&&&&&:&<  &",
"&&&&&& :6e776uu77eeeee5& @&&&%&&X X& &&&&&%&%%%%&&&&8<  7@ &&&&&",
"&&&%1:&u7ee7eee777eeeea7:7&&&&&&% e   &&%&&%%<%%&& &@J#,    &&&&",
"%&&&&1eeeueeeeesfp7issgi77u7&&&&%%..71.%%&&&&&&&&& & @&& &   &&&",
"&&&&&qeee7eueascNxsffxxss777&&&&%%%<  %%&&%&&&&&7& &i&,1e&< &&&&",
"&&&&6uiseesscgsNZCxxcZZZbte7&&  %%%%%%%%&%%&&&&& &&&  3 X &<&&&&",
"&%177eeeeallchlVSZlBSSZZBse7:& t.%%%%%%<%&&&&&&&&&&&&&5X& &&&&&&",
"&& 77ueeeahfxfMZSSZSSSSZSNx<%%%%%%%%%%%%%&&&&&%&&&%&&&  &<&&&&&&",
"%&&&:7u7euascBMZZZZSSZZZAZZ6%%%<%%%%%<%%&&%=&&&%%&%&&&&   X&&&&&",
"%%&& &77eeeefZZClxxxMxZMxxx%%%%%<%%.%<%%&%%&&&&&&&&&&<& &X&&&&&&",
"%%&&&  11:66eefe77777qq71&%%%%&&%%<.%%%%%&&&&&&&%%&%&&& &&&&&&&&",
"&&&%&&i%%&&&66ww75<&<<=&&%&%%&%%%%<o.%%%&&%%&&&&&&&&&& <&&<&&&&&",
"&%&&&&%&&=&&%.&& %&&%%&&&%%%&%&&<%%%%%%%%&&&&&&&&%&&&&&&&  &&&&&",
"&%%&%&&&&=&&%%%.%%&&&%%%%%%&&&%&%%%%%..%&%&&&&&&&&&&&< & <  &&&&",
"&&%&&&&&&&&&%%%%%&&&&%&&%&%&%&&&%%%%%%%<%%%&&&&&=&&<      : &&&&",
"%&&%&&&%&%&&%<%%&&%&&&%&&&%&&%&%%%%<&&&&&&&&:   &&<     &&&: &&&",
"%&&&&%%<%%&%%%%<&%&&&&&&%&&%&&&%%%%%&&&&&&17uie61   1uo&X&&  &&&",
"&%&&%%%%%%% %%%%&&%&&&&&%%&%%%&&%%%%&&&&&6ue7eee7  && &X& &&&&&&",
"%%&&%%%%%%% %=%%&&&&&  &%&&&&&&%<%%%&&&&6ueeuuee72 <   &&&< &&&&",
"%%.w<%%%.%.t%%& &&&&&63&%&&&&&&&%%%<%%&&77eiaaaeue6:&&&&:& &&&&&",
"%%...%%%7.% %  &&&&&&& &&&&&&%&&%%%%%. 177isllcseee7&&&& && &&&&",
"%<%%%<%%<.<%%%&& &&&&&&&&&&&&&&&%%%%%<777txxfllsieee5& X  &<&&&&",
"%%%%%%%%%==%%%& #F&&&&&&%&&&&%&&%%<%<677eisfhhhhchcx913s41&& &&&",
"%%%%&&&&&&&&&& =+D = %%%%%%%&&%&&67eeeeeeaxlkclccbnmxte777:& &&&",
"%%%<&&&&&&&&&= ==&<& %%<%%<%&& &6queu7u7assggbmmbVKPBtetee3:X&&&",
"<%%%&&&&&&&&&=&  && %%%%%%%%&%%6eeeu7e7sfcccnKTSVPUSPBMVM9s76&&&",
"%%&%&<&&&&&&& =&&&&&=%%%%%%%&%:77ee7eeesfxgcKSSKSPVSSKZSZVSNw&&&",
"%%& o<& o&w1&&  && &&   <%&&:17euu6ee7esghlxSSPPSSSYSSPPZSSZi5=&",
"%%&<IO  && &&&  &&& &&& <<& 3tiqfjeei7ibxsgbVSSSSVSSSPPPZSTCw&&&",
"%%%<@<  && &&&t o &  <: 5717efji7uesdthCClcBKSSSSSPSPVSSSSZx&&&&",
"%%%% =% && : &o &&&&& &&:teeeeu77eeeeuhxcxgnZSSVPPnPYSSSPVp& &&&",
" && X o &&< && &&<  &&&&&5777767eeeefetffflxBCBBbNZZZZZCbt1 &&&&",
"  & &   && &&& :& &&&X  &&&1& & 17777733sgfcbllltexxxxxfiX &&&&&",
"< &:&Xi &1&&&& <&& &&< &&1&&&&& &::11   :e7ttsssge7euii1  & &&&&",
"& &&&  &&& && & &&&&& t&&&&&&&&q&&  & :&%:666731XX :::<&&&: &&&&",
"& &&&&&&&& & &&&&&&& &&&&&&&%&&%%&&&&&&&&%%%%%%% %%%&&&& &&&&&&&",
"&&&&&&&&&&&&&&&&&%&%&&&&&&&&&&&&&&&%&&&&&&&&%&%&%%%%&&&&t &&&&&&",
"&&&&&&&&&&&&&&&&&&&&&&&&&&&&&&&&&&&&&%&&&&&&&&&&&&&&&&&& &&& &&&",
"&&&&&&&&&&&&&&&&&&&&&&&&&&&&&%&&&%&&&&&&&%&&&%%&&&%&&&&&&&&& &&&"
};
