/* XPM */
static char *purple_e[] = {
/* columns rows colors chars-per-pixel */
"64 64 217 2 ",
"   c #120B35",
".  c #160F3A",
"X  c #17103D",
"o  c #1A123F",
"O  c #1D1544",
"+  c #1F1846",
"@  c #211444",
"#  c #231B4A",
"$  c #291948",
"%  c #261D52",
"&  c #281F53",
"*  c #351D54",
"=  c #2B2254",
"-  c #2C235C",
";  c #3A265A",
":  c #3D2A5B",
">  c #332456",
",  c #3B2C4D",
"<  c #2C186F",
"1  c #2F1A74",
"2  c #301A77",
"3  c #321B7A",
"4  c #2E2463",
"5  c #312664",
"6  c #332A65",
"7  c #322769",
"8  c #352A6B",
"9  c #382D6E",
"0  c #392E62",
"q  c #3B3164",
"w  c #3C336D",
"e  c #342970",
"r  c #3C2E72",
"t  c #382579",
"y  c #3C3273",
"u  c #3D3A79",
"i  c #2F3361",
"p  c #41225C",
"a  c #462A5F",
"s  c #532B46",
"d  c #723D50",
"f  c #432B64",
"g  c #492F63",
"h  c #462A6C",
"j  c #4A3368",
"k  c #54346A",
"l  c #543B6C",
"z  c #422F76",
"x  c #413475",
"c  c #433974",
"v  c #44337A",
"b  c #44397A",
"n  c #493D7C",
"m  c #4B3977",
"M  c #523776",
"N  c #663773",
"B  c #693E79",
"V  c #673B76",
"C  c #4D417C",
"Z  c #49457B",
"A  c #5B487F",
"S  c #55457C",
"D  c #484F74",
"F  c #6C417A",
"G  c #6C4F7D",
"H  c #6F4F7F",
"J  c #76464D",
"K  c #8C5252",
"L  c #B4534E",
"P  c #AE715B",
"I  c #381F85",
"U  c #3A2186",
"Y  c #3B2289",
"T  c #432B8D",
"R  c #483B84",
"E  c #533B84",
"W  c #543E89",
"Q  c #553B89",
"!  c #452C93",
"~  c #472E99",
"^  c #4A2F9D",
"/  c #4D349B",
"(  c #693D8D",
")  c #5A3CAB",
"_  c #5437B0",
"`  c #593AB9",
"'  c #603FBC",
"]  c #4E4483",
"[  c #524283",
"{  c #5B4A86",
"}  c #53418B",
"|  c #574A88",
" . c #5E4E8C",
".. c #5A4681",
"X. c #485685",
"o. c #5F508D",
"O. c #5D5185",
"+. c #5A4993",
"@. c #505897",
"#. c #6B4382",
"$. c #604E8A",
"%. c #644784",
"&. c #61518D",
"*. c #68528E",
"=. c #685885",
"-. c #725986",
";. c #63449B",
":. c #664397",
">. c #675491",
",. c #695492",
"<. c #6E5895",
"1. c #69599D",
"2. c #705A97",
"3. c #725C9B",
"4. c #795E97",
"5. c #764D87",
"6. c #486B8C",
"7. c #74638E",
"8. c #726491",
"9. c #7D619C",
"0. c #7A6B96",
"q. c #6B4CA3",
"w. c #6343BD",
"e. c #6844BF",
"r. c #6954A0",
"t. c #5177AB",
"y. c #7B66A7",
"u. c #7B61B4",
"i. c #704EC3",
"p. c #854E89",
"a. c #884486",
"s. c #905290",
"d. c #845F96",
"f. c #906195",
"g. c #847398",
"h. c #947794",
"j. c #8A668C",
"k. c #874EAF",
"l. c #895EA3",
"z. c #8B51B1",
"x. c #8165A1",
"c. c #8667A5",
"v. c #906EAA",
"b. c #906AA8",
"n. c #9472AD",
"m. c #977CAA",
"M. c #8A72BB",
"N. c #916DB2",
"B. c #BD6DB3",
"V. c #C06FB7",
"C. c #9F5AC1",
"Z. c #A45BC9",
"A. c #9560D2",
"S. c #9B60D2",
"D. c #9A68D4",
"F. c #9174C6",
"G. c #BB68CF",
"H. c #A97CC7",
"J. c #BC7BCB",
"K. c #A460D2",
"L. c #AD60D2",
"P. c #A668D4",
"I. c #B167D3",
"U. c #BE7FD3",
"Y. c #C96FCC",
"T. c #C26BCE",
"R. c #D776CA",
"E. c #DB7BC7",
"W. c #C076D2",
"Q. c #E57EC7",
"!. c #E27CC8",
"~. c #9B9598",
"^. c #988694",
"/. c #B5888E",
"(. c #9986A5",
"). c #AA8FB2",
"_. c #D39F93",
"`. c #D8A899",
"'. c #DDB296",
"]. c #D2A896",
"[. c #E0B59D",
"{. c #C994BD",
"}. c #C99DAF",
"|. c #D7A8B6",
" X c #D6A2BC",
".X c #D5B5A8",
"XX c #E4BDAB",
"oX c #E2BAA6",
"OX c #E3BAB4",
"+X c #E0B6B0",
"@X c #E5AFB3",
"#X c #CAC6A5",
"$X c #E5C0AD",
"%X c #E6C5B9",
"&X c #E7C7B9",
"*X c #EDD2BD",
"=X c #EAD9B7",
"-X c #E6DBAE",
";X c #A889C7",
":X c #AF8FCC",
">X c #C686C7",
",X c #CC99C8",
"<X c #CC99D1",
"1X c #D290D2",
"2X c #E596C6",
"3X c #E182D0",
"4X c #E586C4",
"5X c #CAA4C0",
"6X c #DAA8C2",
"7X c #DDAFD8",
"8X c #E0B2CA",
"9X c #E6ADD1",
"0X c #D492EC",
"qX c #D79CE5",
"wX c #D8A3EB",
"eX c #EBCDC8",
"rX c #ECD2C6",
/* pixels */
"< < < < < < < < < t < < < < < < < < < < < < < < < < < < < < < < < < < < < < < < < < < < < < < < < < < < 1 < < < < < < < < < < < ",
"1 1 1 1 1 2 2 < < < 2 2 2 2 1 1 1 1 < < 1 1 1 1 < 1 1 1 1 3 1 1 1 1 1 < < 1 1 1 1 < 1 1 1 1 1 1 < < 1 1 1 1 1 < < < < t 1 1 1 1 ",
"2 2 U 2 2 2 2 2 2 2 2 2 2 2 2 2 3 3 3 U 3 3 1 t 1 1 3 U 3 3 3 3 U 3 3 3 3 3 3 3 3 3 t 3 3 3 3 3 t 1 1 1 1 3 3 I 3 3 3 1 1 3 3 3 ",
"U U U U I I I I I I I I I I I I U U U I I I I I U I U U I I I I U U I I I I I I I I U I I I I I I I I I U U Y I I I I I Y I I I ",
"I I I I I I I I I I I I I I I I U U U I I I U U I I I I I I I I I I I I I U U I I I I I I I I I I I Y Y U U I I I I I I U U I I ",
"I I I I I I I I I I I ! I I I I Y I I I I I I U I I I I I I I I I I I I Y U I I I I I I I I I U I I I I I I I I I I I I U U I I ",
"I I I I I I I T I I I I I I I I U U U U I I U U I I I I I U I U I I I I I U I I U I I U I I U U I I I I I I I I I I U I I U I I ",
"Y Y Y Y I U Y Y Y Y Y Y Y Y Y Y Y U U Y Y Y Y Y U U U U ! U U U Y Y Y U U U U U U U ! U U I Y Y U U U U I I I I I Y Y Y U U U U ",
"Y I I I Y Y Y Y I Y Y T Y Y Y Y Y Y Y U Y Y Y Y Y Y U Y Y Y Y Y U I U Y Y Y Y Y Y Y Y Y Y Y Y Y Y Y Y Y Y Y U U Y ! Y Y Y U Y Y ",
"Y Y Y I I I I I Y Y I I Y Y Y Y Y Y Y Y Y U Y Y U Y Y Y Y Y Y Y Y Y Y U U T Y U U Y Y U U Y Y Y Y T Y Y Y Y U U U U Y Y Y Y ! U ",
"! ! ! ! ! T T T ! ! T ! ! ! ! ! ! Y ! T ! Y ! ! ! Y ! Y ! Y ! Y ! Y Y ~ ! ! ! Y ! Y Y ! ! T ! ! Y ^ Y ! Y ~ Y ! Y Y ~ Y ! Y Y ! ",
"! ! ! ! ! ! ~ ! ! ! ! ! ! ! ! ! ! ! ! / ! ! ! ! ! ^ ! ! ^ ! ! ! ~ ! ~ ~ ! ! ! ^ ! ! ! ^ ! ! ! ! ! ! ! ! ~ ~ ! ! ^ ~ ~ ! ! ^ ! ! ",
"! ! ! ! ! ~ ! ! ! ! ! ! ! ! ! ! ! ! / ! ! ! ! ! ! ! ! ! ! ~ ! ! ! ! ! ! ! ! ! ! ! ! ! ! ! ! ! ! ! ! ! ! ~ ~ Y ~ ! / ! ! ! ! ! ! ",
"! ! ! ! T ~ ! ! ! ~ ! ! ! ! ! ! ! ! ! ! ! ! ! ! ! ! ! ! ! ! ! / ~ ! ~ ! ! ! ! ! ! ^ / ! ! ! ! ! ! ! ! ! +.! ^ ! ! ! ! ! ! ! ! / ",
"! ! ~ ! ! / ! ! ! ! ~ ! ! ! ! ! ! ! ! ! ! ! ! ! ! ! ! ! ! ! ! ~ ! ! ! ! ! ! ! ! ! ! ! ! ! ! ! ! ! ! ^ ! ! ! ! ! ! ! ! ! ! ! ! ! ",
"! ! ! ! ~ ! ! ! ! ~ ! ! ! ! ! ! ! ! ! ! ! ^ ! / ! ! ! ! ! ! ! ! ! ! ! ! ! ~ ! ! ! ! ! ! / ! ! ! ! ! ! ! ! ! ! ! ! ! ! ! ! ! ^ ! ",
"^ ^ ~ ^ ^ ^ ^ ^ ^ ! ~ ~ ^ ^ ^ ^ ^ ^ ^ ~ ~ ^ ^ ^ ~ ! ^ ^ ^ ^ ^ ~ ~ ^ ^ ^ ^ ^ ^ ^ ~ ~ ~ ~ ~ ~ ^ ^ / ^ ^ ^ ^ Y / ^ ^ ^ ! ^ ^ ^ ^ ^ ",
"^ ^ ^ ^ ^ ~ ~ ^ ^ ^ ^ ^ ^ ~ ! ~ ! ! ^ ^ ^ ^ ^ ~ ^ ^ ^ ! ! ^ ^ ^ ~ ~ ~ ^ ^ ^ ^ ^ ^ ~ ~ ^ / ~ ! / ^ ^ ^ ^ ^ ^ ^ ^ ^ ^ ^ Y ^ ^ ^ ^ ",
"_ _ _ _ _ _ _ _ _ _ _ _ _ _ _ _ _ _ _ _ _ _ _ _ _ _ _ _ _ _ _ _ _ _ _ _ _ _ _ _ _ _ _ _ _ _ _ _ _ _ _ _ _ _ _ _ _ _ _ _ _ _ _ _ ",
"` ` ` ` ` ` ` ` ` ` ` ` ` ` ` ` ` ` ` ` ` ` ` ` ` ` ` ` ` ` ` ` ` ` ` ` ` ` ` ` ` ` ` ` ` ` ` ` ` ` ` ` ` ` ` ` ` ` ` ` ` ` ` ` ",
"` ` ` ` ` ` ` ` ` w.` ` ` ` ` ` ` ` ` ` ` ` ` ` ` ` ` ` ` ` ` ` ` ` ` ` ` ` ` ` ` ` ` ` ` ` ` ` ` ` ` ` w.` ` ` ` ` ` ` ` ` ` ` ",
"` ` ` ` ` ` ` ` ` ` ` ` ` ` ` ` ` ` ` ` ` ` ` ` ` ` ` w.` ` ` ` ` ` ` ` ` ` ` ` ` ` ` ` w.` ` ` ` ` ` ` ` ` ` ` ` ` ` ` ` ` ` ` ",
"` ` ` ` ` ` ` ` ` ` ` ` ` ` ` ` ` ` ` ` ` ` ` ` ` ` ` ` ` ` ` ` ` ` ` ` ` ` ` ` ` ` ` ` ` ` ` ` ` ` ` ` ` ` ` ` ` ` ` ` ` ` ` ` ",
"` ` ` ` ` ` ` ` ` ` ` ` ` ` ` ` ` ` ` ` ` ` ` ` ` ` ` ` ` ` ` ` ` ` ` ` ` ` ` ` ` ` ` ` ` ` ` ` ` ` ` ` ` ` ` ` ` ` ` ` ` ` ` ` ",
"` ` ` ` ` ` ` ` ` ` ` ` ` ` ` ` ` ` ` ` ` ` ` ` ` ` ` ` ` ` ` ` ` ` ` ` ` ` ` ` ` ` ` ` ` ` ` ` ` ` ` ` ` ` ` ` ` ` ` ` ` ` ` ` ",
"w.e.e.e.e.e.e.e.e.e.e.e.e.e.e.e.e.e.e.e.e.e.e.e.e.e.e.e.e.e.e.e.e.e.e.e.e.e.e.e.e.e.e.` ` ` e.e.e.e.e.e.e.e.e.e.w.w.e.i.e.e._ / ",
"e.e.e.e.` ` ' e.e.e.e.e.e.e.e.e.e.e.e.e.e.` ` ` ` ` ` ` e.e.e.e.e.e.e.e.e.` ` e.e.e.e.e.e.e.e.e.w.w.e.e.e.e.` ` w.e.e.e.e.e.5 + ",
"` ' e.e.e.e.e.e.e.` ` ` ' e.e.e.` ` e.e.e.e.e.e.e.` ` e.e.e.e.e.e.e.e.e.e.e.e.e.e.e.` ` w.e.e.e.e.w.w.e.e.w.` ` ` w.e.e.) Q = + ",
"A.A.A.A.A.A.A.A.S.A.A.A.A.A.A.A.S.A.A.A.A.A.A.A.A.A.A.A.A.A.A.A.A.A.A.A.A.A.A.A.A.A.A.A.A.A.A.A.A.A.A.A.A.A.A.A.A.A.A.A.+.< # # ",
"A.A.A.A.A.A.A.A.A.A.A.A.A.A.A.A.A.A.A.A.A.A.A.A.A.A.A.A.A.A.A.A.A.A.A.A.A.A.A.A.A.A.A.A.A.A.A.A.A.A.A.A.A.A.A.A.A.A.A.A.q.% # k ",
"A.A.A.A.A.A.A.A.A.A.A.A.A.A.A.A.A.A.A.A.A.A.A.A.A.A.A.A.A.A.A.A.A.A.A.A.A.A.A.A.A.A.A.A.A.S.A.A.A.A.A.A.A.A.A.A.A.A.A.A.;.= # p.",
"A.A.A.A.A.A.A.A.A.A.A.A.A.A.A.A.A.A.A.D.A.A.A.A.A.A.A.A.A.A.A.A.A.A.A.A.A.A.A.A.A.A.A.A.A.A.A.A.A.A.A.A.A.A.A.A.A.A.A.A.;.= # p.",
"A.A.A.A.A.A.A.A.A.A.A.A.A.A.A.A.A.A.A.A.A.A.A.A.A.A.A.A.A.A.A.A.A.A.A.A.A.A.A.A.A.A.A.A.A.A.A.A.A.A.A.A.S.A.A.A.A.A.A.A.;.% O X ",
"A.A.A.A.A.A.A.A.A.A.A.A.A.A.A.A.A.A.A.A.A.A.A.A.A.A.A.A.A.A.A.A.A.A.A.A.A.A.A.A.A.A.A.A.A.A.A.A.A.A.H.[ n } [ | W ( A.A.;.% @ O ",
"A.A.A.A.A.A.A.A.A.A.A.A.A.A.A.A.A.A.A.A.A.A.A.A.A.A.A.A.A.A.A.A.A.A.A.A.A.A.A.A.A.A.A.A.A.A.A.A.A.S.;Xy c c w c w n K.A.;.% # p.",
"S.K.K.S.K.S.S.S.S.S.S.K.S.S.K.K.S.K.S.K.K.S.K.K.K.K.S.S.S.S.S.K.S.K.S.K.S.K.S.S.S.S.S.S.S.S.S.A.S.K.H.{ m S C S n n K.K.;.% % p.",
"S.K.S.S.K.S.S.K.S.S.S.S.S.S.S.S.S.S.A.S.K.S.S.S.S.S.S.S.K.S.S.S.S.S.S.S.S.S.S.S.S.A.A.A.A.:X).q.q.q.q.2.} *.*.O.<.E q.q.E % # k ",
"K.K.K.K.K.K.K.K.L.K.K.K.K.L.K.K.K.K.K.K.K.K.K.K.K.K.K.K.K.K.K.K.K.K.K.K.K.K.I.K.K.K.K.L.K.,X~.[ *.{ C *.{ ] $.$.C | *.] y % X X ",
"L.L.L.L.L.L.L.L.L.L.K.L.L.L.L.L.L.L.K.L.L.L.L.L.L.L.K.L.L.L.L.L.L.L.L.L.L.L.L.L.L.L.L.L.L. X~.+.<.o.] <.{ | >.>.| o.<.| x % # k ",
"L.L.L.L.L.L.L.L.L.L.L.L.L.L.G.L.L.L.L.L.L.L.L.L.L.L.L.L.L.L.L.L.L.L.L.L.L.L.L.L.L.L.L.K.K. X~.&.n.2.] n.2.>.c.y.o.3.n.>.x & # p.",
"L.L.K.L.L.L.L.L.L.L.L.L.L.L.L.L.L.L.L.L.L.L.L.L.L.L.L.L.L.L.L.L.L.L.L.L.L.L.L.L.L.L.L.L.I.5X~.&.v.<.] v.2.$.y.x.o.<.v.o.w = % F ",
"L.K.k.k.z.C.L.L.L.L.L.L.L.L.L.L.L.L.L.L.L.L.L.L.L.L.L.L.L.L.L.L.L.L.L.L.L.L.L.L.L.L.L.L.K.>X(.&.v.3.] v.2.$.x.x.o.] ] ] w - X   ",
"( f + # # j ( ( z.L.L.K.L.L.L.L.L.L.L.L.L.L.L.L.L.L.L.L.L.L.L.L.L.L.L.L.L.L.L.L.L.L.L.L.L.1Xm.| <.o.] <.{ { >.>.| ] ] ] y % # ; ",
"O * a : # > g a 5.>XL.K.L.L.L.L.L.L.L.L.L.L.L.L.L.L.L.L.L.L.L.L.L.L.L.L.L.L.L.L.L.L.L.L.K.T.N.| <.o.] 3.o.| >.>.| ] ] ] y = # p.",
"+ p N k % p F S H $X X XI.L.L.L.L.L.L.L.L.L.L.L.L.I.L.L.L.L.L.L.L.L.L.L.L.L.U.<X,X,XJ.L.L.>Xb.&.n.2.] n.8.>.y.x.{ ] ] Z 9 # # p.",
"O g s.F % a K V G |.|.|.|.>XW.K.L.L.L.L.L.L.L.L.L.K.L.L.L.L.L.K.L.L.L.L.<XeX*X*X*X*X*X%X,X6Xb.$.v.<.] n.<.o.x.x.o.] ] c 9 = + > ",
"+ g s.F % g s.( F Y.T.G.G.G.Y.Y.Y.Y.Y.Y.Y.Y.Y.Y.Y.Y.Y.Y.Y.Y.Y.Y.Y.Y.Y.8X*X*X*X*X*X*X*X%X%X Xb.$.v.<.] ] ] | { { o.] c c 8 = + O ",
"+ ; M k # ; V k ( R.R.R.R.R.R.R.!.Q.Q.Q.Q.Q.R.R.R.R.R.Q.Q.Q.R.R.R.R.9XrX*X*X*X*X*X*X*X*X*X Xl.| <.o.O.y y 8 8 7 r 8 5 w 9 % # F ",
"+ ; M k % ; N k F R.R.R.R.R.R.R.R.R.R.R.R.R.R.R.R.R.R.R.E.E.R.R.E.<X*X*X*X*X*X*XeXOXOX*X*X Xl.| 3.o.8.;.r E W Q 5 5 - w 8 % # p.",
"+ ; B k % , N k 5.V.B.B.B.B.B.B.B.B.2X!.!.!.Q.Q.Q.Q.Q.Q.Q.Q.Q.Q.Q.eX*X*X*X*X*XOX.X`.`.oXOX{.v.v 5 5 Z w 8 r 7 8 7 5 4 r 8 = & #.",
"+ g s.B % a a.B %.F.F.;X0.[ } { o.Z .X@X$XXX4X4XQ.Q.Q.Q.Q.Q.Q.Q.2XrX*X*X*X*X=X(.h.5.d.h.h.o.r 7 8 8 8 8 7 7 7 7 8 8 8 7 6 % X   ",
"+ g a.F $ g f.B k M.u.F.c.[ [ { O.w #X]._.oX$X4XQ.Q.Q.Q.Q.Q.Q.Q.9X*X*X*X*X*X#X8.y.9.n.x.y.g.y r v r r v r r v r r v r z r % # ; ",
"+ ; B k # : N k #.N.y.1.0.o.3.4.$.m =.A -.'.XX2X3X3X3X3X3X3X3X3X9X*X*X%X.X}.-X| *.*.*.*.>.8.v v E r z E z z R z z W z v x % # p.",
"+ * V l # : B k h 7 y Z y [ { { 2.<.,.n.9.`.[.OX@X0X0X0X0X0X0X0X9X*X*X@X].j.^.] X.6.D D y ] 8 8 8 r r 9 r r r r 8 r 8 r 8 % % p.",
"+ ; N k % : G k q y k.k.;.[ S [ 8.1.>.n.9.`..XoXXX8XqXqX0X0X0X0XwX*X).-.O.w x.8.*.S ] ] R +.y y v r r v R R W E 7 z r x 9 & O X ",
"+ h #.V % a ( B h 8 M.:X:Xy.C 6 b b b ] 8./.K _.`.XX[.oX7XwXwXwXwXrXg.C ] j A A c i Z ] ] E R y W v v Q v R r R @ O h x z & % = ",
"+ # = s & $ # % 0 b E o.|  .w 9 9 i w C O.D A =.-.7.-.-.8.3.3.2.2.0.8.] ] w { A q q S ] Z R w 7 - u y u.u.8 5 r + + # t 7 % - # ",
"+ = + d L P J d 9 v W +.r } 9 9 9 w b c m 9 b v w b u u b b b u b b { ] ] w 8.2.A c w w w b u 7 = t.+.+.1.% % 8 + + % 7 4 % > # ",
"+ = $ s K P J s h 9 z v y w 9 9 r e r r 9 6 9 9 w r r r r r r r 8 r y y x 0 6 6 - 5 < 7 7 y @.6.X.t.R y R O + t O + % % o o > # ",
"+ + $ $ $ $ # % % & & & = # = = % - # % & % & & = % % = % % & % = = = % # % % % = + % % % & = = % % & & & % # & % % % % + # # # ",
"+ + # + O + + + + + + + + + + + O + + + + + + + + + + + # + # + + # + # # # @ # O + + + + + + + + + + # @ # # # # @ # @ # # # @ ",
"+ O O O O O O O O O O O + O + + O O O O + O O O O O + + O O O O O O O O O O O O O O O O + O O O + + + + p p * * * & O p : > O O ",
"O   O O   O O   O O X X X X O X   O O   O O X X X X O X X X X X X X X X X X o X   O O   O O X X X X O X @ @ @ @ @ O $ @ @ o X X ",
"                                                                                                                                "
};
