/* XPM */
static char *space_e[] = {
/* columns rows colors chars-per-pixel */
"64 64 173 2 ",
"   c #7E683E",
".  c #01304E",
"X  c #002F50",
"o  c #003355",
"O  c #043956",
"+  c #0C3C54",
"@  c #003658",
"#  c #003A5C",
"$  c #093D5B",
"%  c #133D52",
"&  c #273A4E",
"*  c #233D54",
"=  c #033660",
"-  c #003E63",
";  c #05415D",
":  c #0B425D",
">  c #1C4353",
",  c #13465C",
"<  c #1B4458",
"1  c #16485E",
"2  c #254956",
"3  c #2D4B54",
"4  c #24435B",
"5  c #2A445D",
"6  c #244B5A",
"7  c #2B4D5A",
"8  c #274354",
"9  c #324F55",
"0  c #384F51",
"q  c #314354",
"w  c #2A5355",
"e  c #2C525A",
"r  c #2B585A",
"t  c #33555D",
"y  c #355A52",
"u  c #004267",
"i  c #094264",
"p  c #00456C",
"a  c #084269",
"s  c #02486F",
"d  c #0B4C6B",
"f  c #0D4A67",
"g  c #124A63",
"h  c #184A69",
"j  c #1C4763",
"k  c #185264",
"l  c #185769",
"z  c #1E5C6A",
"x  c #004970",
"c  c #0D4873",
"v  c #0C5273",
"b  c #01517B",
"n  c #125C7E",
"m  c #145977",
"M  c #244562",
"N  c #204F6C",
"B  c #2D4A69",
"V  c #274863",
"C  c #225465",
"Z  c #2C5663",
"A  c #265C63",
"S  c #2F5966",
"D  c #225C6B",
"F  c #2F5D6C",
"G  c #345B64",
"H  c #385E68",
"J  c #375A66",
"K  c #234F70",
"L  c #2E5F7C",
"P  c #265672",
"I  c #315B75",
"U  c #3D5B70",
"Y  c #2A6465",
"T  c #20636F",
"R  c #2C676F",
"E  c #356867",
"W  c #3B616A",
"Q  c #256275",
"!  c #2E6371",
"~  c #246871",
"^  c #276378",
"/  c #2D697C",
"(  c #2A6578",
")  c #356975",
"_  c #35637E",
"`  c #37697B",
"'  c #287077",
"]  c #25707B",
"[  c #445B64",
"{  c #55546D",
"}  c #456C6F",
"|  c #406177",
" . c #476F79",
".. c #40797D",
"X. c #4A757B",
"o. c #67727B",
"O. c #8B7A4F",
"+. c #7C8F5B",
"@. c #4F8070",
"#. c #6A9A66",
"$. c #608A72",
"%. c #73A368",
"&. c #72AC76",
"*. c #8CA465",
"=. c #89B078",
"-. c #266B83",
";. c #376682",
":. c #396681",
">. c #3C6A85",
",. c #386F8E",
"<. c #356D8B",
"1. c #2A6E91",
"2. c #416B84",
"3. c #406E8A",
"4. c #42728D",
"5. c #57788D",
"6. c #58788D",
"7. c #54758B",
"8. c #427D96",
"9. c #617F94",
"0. c #1A90B3",
"q. c #4B888E",
"w. c #509D8A",
"e. c #50859D",
"r. c #678697",
"t. c #748E98",
"y. c #54A28C",
"u. c #69B589",
"i. c #6A91A4",
"p. c #7595A8",
"a. c #57A8BC",
"s. c #6AB4AF",
"d. c #7DB4A6",
"f. c #7FA0B1",
"g. c #6DB9B4",
"h. c #4D8FB1",
"j. c #48B2C6",
"k. c #59BAC9",
"l. c #34C3CD",
"z. c #79D5D2",
"x. c #4CE3DA",
"c. c #54E3DA",
"v. c #6DE4CD",
"b. c #68E0DF",
"n. c #7AE8D3",
"m. c #66E2E1",
"M. c #9A979C",
"N. c #8DB09C",
"B. c #86A79C",
"V. c #B5BD83",
"C. c #849CAC",
"Z. c #8AB6BA",
"A. c #97D08C",
"S. c #99C290",
"D. c #9ED1BE",
"F. c #A0D2BF",
"G. c #99E0BE",
"H. c #8EBDC2",
"J. c #9CBAC4",
"K. c #9CBFC8",
"L. c #9DC2C4",
"P. c #8FD4CE",
"I. c #90DBDC",
"U. c #A7C9CF",
"Y. c #A3C5CB",
"T. c #AAEACB",
"R. c #ABE2DC",
"E. c #B9EBD4",
"W. c #BDEEE7",
"Q. c #A2F3E4",
"!. c #C0EEE8",
"~. c #C0F4EC",
"^. c #DDF0F0",
/* pixels */
"X X X o X o X o X o o o o o o o o o @ o @ @ o @ - o # o o @ @ o # o o @ o @ @ @ @ @ o @ o @ o o o o @ o o o o o X o o X . X X X ",
"X X X X o . o X . o o o o o o @ @ o @ @ @ @ + @ o # o # # @ # @ # # > # # @ @ @ @ @ # o @ @ @ o @ o o o o o o o o X X o o X X X ",
"X X o 6 4 o o o o o o o o @ o @ @ @ @ o @ @ @ o @ # # # # # # # @ # @ @ @ @ # @ @ @ @ o @ @ @ @ # o @ o @ o o o o . o X o X X . ",
"X X X J < o . o o o o o @ o @ @ @ @ @ @ # @ # # @ @ # @ o # # # # # # @ # # @ # # @ # # @ @ @ @ # o # o o o @ o X o + o X o X o ",
"o o o X o o o o o @ o < @ @ @ @ @ @ # # @ # @ # ( @ # # # ; # # # # # # # # # # # # # # # @ @ D y.@ @ % o o o o o o o . o . o X ",
"o X X o o . o o o o o @ u u @ & @ @ # @ # # # / V.N.# # # # # # # - # # # # # # # # # o # # # # z @ @ @ @ @ 5 a o o o o o X X o ",
"X o X . o o o o @ @ @ @ u u @ @ @ # # # # # # # B.>.# - - # # # # - # # # 2.i # # # + # # o # @ # # o @ @ @ i c o o o o o o o X ",
"o X o o o o o 8 o @ @ @ # @ @ # # @ # g # = # # # # # # # - 1 - - # - # # M.;.# # # W G # # # @ @ @ # @ @ @ o o o o o o w o X o ",
". o o o @ o o o @ @ @ @ # # @ # # # # # # - - # - - - # # = - - # - # # - @ - - - = A Z @ # - # # # # @ # o # o @ o o o o o o o ",
"o o o @ o o @ @ @ @ @ @ @ # # # - # # # - # # # @ @ - - - - - - - - - - - - - @ @ - - = - @ # & # # @ # # # o @ @ @ @ o @ o o o ",
"o . o o o @ o @ @ @ @ # @ # # # # # # # # - # - - - - - - - - - - - - - - - - - - - - @ # - - @ # # # @ o # # o @ @ @ 0 o o o X ",
"o o o o @ @ @ @ @ @ # @ # # # # # # # - # - - - - - - - - * - - - - - - - - - - - - - - - # # - # ` : # # # # o @ @ @ o o o o o ",
"o o o o 8 @ @ @ @ z # # # # # # = # - # - - - - 6 - - - - - u - - u - - u - - - = - - - # - # # - p.L # # # # # @ @ @ @ @ o @ o ",
"o o o @ o # @ # # w.l # # # # - - @ - - - - - u - - - - - u 5 - - - u - u - - - - - - - - - - # - # - # # # # @ @ @ @ @ @ o @ o ",
"@ o o # @ o o # # # # - # # - # - - - h N - - - - u - u u - - u u u - - - - - - - - u u - - # - - @ # # # # 2 # @ # @ @ @ @ o o ",
"o o o @ @ @ # o # # # # # - # - - - - K | - - u - - - u u u u u u u u : u u u 9 - - %.Y - - - - - - # - # # # # @ r @ @ @ @ o @ ",
"@ o @ @ @ @ # @ # # # # # - - - = - - - - u - - u u u u u u u u u u u u u u u - u - Y u u - - - - - @ - i # # # # +.r @ @ @ @ o ",
"o @ @ @ @ # @ # # # # - - # - - - - u - u - u u u 6 u u u u u u x u u - u u u e u u - u c - - - - - - @ - @ # # # # @ # @ o @ o ",
"@ @ @ @ @ @ # # # # - # # - - - - - - - - u u u u u u u u x u u u V u x u x u u u u u g u u F - - - - - - - - @ # # # @ @ @ @ @ ",
"o @ @ @ # @ # # # - # # V B - - - - u - u u u u u u x u x u u x u u u x u u u u u u u u - F 1./ - - - - @ - # - # # @ # # o @ # ",
"@ @ o @ @ @ # 3.- - # - B { - - u - u u u u u u u u x x - x x - u u u x x u u x u u u u u u -.x - & - - - - - @ # # # ; @ o @ @ ",
"@ o # # # # q.` ( P # - - - - - - - u i u u u x x u u u x - x x x x u u u u x u u u u u u u u - - - - - - = # # # # # # # @ @ @ ",
"@ @ @ # i ` ` #.A r.- - - - - u - u u u u u x u u x u d N.7.x - - x x x u x x u u u x u u u u - - - u - - - @ - # : $ # @ # @ @ ",
"@ @ @ @ @ # ( A ( - # - - - - u - u u u u u x u u u x d 2.K x x x x u x x x u u x x u u u u u - u - - - - - - # - G J # # # @ @ ",
"@ # # @ # # / p.a / - - # u >.i.u u u u x u u x u u x x x = c = x x x - -.- - -.u u x x - u u u - u u - - - - * - G W # @ @ @ @ ",
"@ o o # # # A # # - - - u 4.E.T.Y.u u u u u x u x x x u x x -.= - x - x 1.= = = x u u u x u - Z u - - - # - - - - # # @ # # @ @ ",
"# o # # @ A #.- # - - - ; f.T.G.L.- u u u x u x x x x x x x x x x x x 8.1.1.x x u x x u u u u u u - - - - - - # # # # - # @ # @ ",
"o # o # # # # # - # - - u f Z.L.8.u u x u x u p x - x x x - x x x x x -.8.x x x x x u x x - u u u - - - - - - # - # # # # # @ @ ",
"@ # # @ # # # - # - - - - - a u u u p p u p x p - x = x h - x x x x x = - x = x x u x u V u u u u u - - - - - - # - # # # # @ @ ",
"@ @ @ @ # # # # # - - - u - u u u u u u p p p x x x -.- = -.x x x x x x - -.x x x u u u u x u u u u u u - - - # # # # # # @ # @ ",
"@ 0 # # # # ; - - - - - - - u u u u p u u p p b b - x x x x x x x x x x x x x x x x x p u p u u u u u.Q u - - # u : # ) p o @ o ",
"@ # @ # # # - # # - - - - u - u u u p f p p p b -.- x x x x x x x x x x x x x x u x p p a u u u u u ~ - - - - - # # ; =.R # # # ",
"@ @ @ # # # - # - - - - - g u u - - x - - x - = x x x x x Q -.x x x B x x x x x u V x x u x u u u u - - - - - - @ - - # # # @ @ ",
"@ @ # # # - # # # - - - - u - u x x - - x - x -.- x x x x &.n x x x x x - x x x x x u u x - u V u u - u - - - - - @ # # # @ @ # ",
"@ # @ # - # # - - 9 - - - t - u - x x c - x x - x x x x x x x x x x x x x x x x x u x x - x - u u u - u - - - - - = # # # # # @ ",
"o @ # @ # # - # @ - - - t O.- u - - - x - x x x x x u x x x x x x x x x x = x x P [ a u x - u u u u - - - - - # @ - % # # # @ @ ",
"@ @ # @ # - # # - - - $ u - - u x x - x x x - - - x - x x x x x x x x x x x x x I o.u u u x u u u h - u - - - - # - # # # # @ o ",
"@ # @ # # # 8 - # - - - - - u u - - - x - x x x x x x x - x x x x x x B x x x = x x u x u u u u u - - u - - - # # # # # @ @ # # ",
"@ @ J @.# # # # # 8 - - - u u - x - - x x - x x - x x - x x x x - x x = - P x x u u u u x u u x u - u - - - u - - + # # o # o o ",
"@ @ $.A.# # # # - - - $ - - - - - x - - - x - - x = -.v x u x x x x x = -.x = x x u x x u u u u u - - - - - - - - # # # # + # # ",
"@ @ # @ @ # # # # # - - - - u - - - u u x x D u u x v n u x x x x - -.= x x - x - x u x u u u u -.- - - - x u - # # # # @ # o @ ",
"@ o @ @ # # # # - # - - - - - - - x u a - u x u x u u x u x u x - I -.= x u x - x - x - u u u -.g.- - - - x u # # # # # # @ @ @ ",
"@ @ @ # # # > # # - # # - - - - - - x u u u - x x u u x x x x x - x = = - x x - u x * u u u u - - - - - - - # - # - @ # # @ @ @ ",
"@ @ @ @ # # 3 # # - = - - # - - - - - - u u - u u u x u u u u u x x - x J x - x x u u u u u - - - - - - - - - # # # # @ # @ @ @ ",
"o @ @ @ @ # # # # - # - # - - - - - - u R a u u u x u x u x h u - x - x x - - x - - u u u - - - - - - - - # - # # # # @ @ @ @ @ ",
"@ @ @ @ # @ @ # # # - # - - - - - u - u *.D u u u u u u u u u x x - x - - x x - x u - x u - - - - - - - # - # # # # @ # { 4 @ o ",
"o # @ @ @ @ # + # # i # # - - - - u u - - u u u u u u u d u u u - x - x - - x - - u u - - u u - - - - - # # # # # # o $ V V @ o ",
"o o o # o # # y # # :.- # # - - i - - - - u - u u u u u u u u u - B x - x - - x u - - - - - A - - - = - - # # # # # @ j V @ @ @ ",
"o o # o @ e @ @ = 2.6 ;.@ @ - - - - - - - - - - u u u u u u u u r   u u u u u u - - - - - - - - - - >.K.^.J.:.@ @ @ @ j U @ @ @ ",
"o o o # @ @ @ @ @ @ 2.# - - # = - - - # - - u - - - - - u u u u - u u u u - - - u - - - - # - - @ >.~.Q.W.m.k.:.@ - @ @ @ @ o o ",
"@ o o & @ @ @ @ - @ - # # # - # # - - - - - - - - - u - - - - u - - - - - - - - - - - - - - - - - U.Q.n.x.l.j.Y.@ @ @ @ @ @ @ o ",
"o o @ @ @ @ @ @ @ @ @ # # # # - - # # - - - - - - - u - u - - - - - u - - u - - - - - - - - # - i W.v.c.b.l.P.!.@ @ @ @ @ @ X @ ",
"o o r J X @ O @ @ @ # @ # # w # # - # - - - - 3.- - - - - - u - - u - - - - - = - - - - - < # # - H.m.b.h.z.v.Z.@ @ @ @ + o @ X ",
"o o 6 r X @ @ @ @ # @ # # Q ; # # - - # # # _ G L u - - - - - - - - - j - - - - - - - # - # # # @ ` b.0.I.n.a.L w.l @ @ X @ @ X ",
"o o o o @ @ @ @ @ @ # @ @ y.z # # # # - # - t.q ) >.- - - - - - 8 - - - - - - - * # # - - # # # - - 2.K.R.Z.:.@ l @ X @ X @ X @ ",
"o . o o @ o X @ @ @ @ o # # # # # # < # # # ( t.L @ = - - # u / - - - - - - @ # - - # # # # # # @ @ @ @ @ @ @ @ @ o @ @ @ o o X ",
". o o o o @ @ o o @ o @ @ # @ # @ # ; # # # # # # - - # # - x x # - # # - @ - # # # - # # # # # @ # @ @ @ @ @ @ o % @ o X X o X ",
"o X o o o o o o o @ < @ @ @ # @ # @ # # # # # # # # # - # # - # - # - - # - - # $ # # # # / s.# # @ @ @ @ @ @ @ o o o @ o o X o ",
"X o o . o o o o @ @ @ @ @ @ @ @ @ # @ # ; # # p u # # # # # # # # # # # - # @ # - @ - @ # # ^ # @ @ @ @ @ o @ o O @ X o o X o X ",
"o X o . o o d : o o o @ @ @ @ @ @ # @ @ # @ # p p # # # 3 # # # # # # # @ @ - # # @ @ $ } G # @ @ % @ @ o + o @ 0 o o X o o X o ",
"X . o X X o ; # o o o o o @ @ @ @ @ @ @ @ # @ # # # # # # # # # # # # # # # * @ @ # @ $ Z J @ @ @ @ @ o o o o o o o o X X X o X ",
"X X X o o X o o o o o o o o @ @ @ @ @ o @ @ @ @ # # # o # @ @ @ # @ # @ @ # @ @ @ @ # @ @ @ @ @ @ @ @ o 1 k k D D k k h k k k $ ",
"X X X o . o o . o o o < @ o o o @ @ @ @ @ @ @ @ @ 8 @ # # # # # @ # @ # # @ # @ @ X @ @ @ @ @ - @ o o @ ) e.C.d.N.5.t.r.7.r.6.C ",
"X X X X o o . o o . o o o o o @ @ o @ @ @ @ @ @ @ @ @ o o # o o # o @ @ @ @ @ @ @ @ @ @ @ @ o @ o @ o o A ( A ..3./ ) ) R ) C 1 "
};
