/* XPM */
static char *purple_sec[] = {
/* columns rows colors chars-per-pixel */
"64 64 251 2 ",
"   c #23071F",
".  c #250922",
"X  c #2A0A25",
"o  c #2C0B2B",
"O  c #240721",
"+  c #330A2C",
"@  c #3A082C",
"#  c #38132D",
"$  c #2E0E32",
"%  c #320D33",
"&  c #3C0B35",
"*  c #2E1537",
"=  c #34123A",
"-  c #29152A",
";  c #3C2236",
":  c #440934",
">  c #490B3A",
",  c #58073B",
"<  c #52193D",
"1  c #471434",
"2  c #49263E",
"3  c #3A1545",
"4  c #3B1B53",
"5  c #3A304E",
"6  c #3A276A",
"7  c #560D46",
"8  c #451347",
"9  c #471A57",
"0  c #53134F",
"q  c #680A49",
"w  c #77094A",
"e  c #6A0E55",
"r  c #790C57",
"t  c #661259",
"y  c #741355",
"u  c #572C48",
"i  c #6B334E",
"p  c #5A1C68",
"a  c #691866",
"s  c #76166A",
"d  c #681D71",
"f  c #7B1E7C",
"g  c #7E0F62",
"h  c #482568",
"j  c #512974",
"k  c #67247B",
"l  c #74277A",
"z  c #3D464F",
"x  c #45565C",
"c  c #4A4B54",
"v  c #7B4B5A",
"b  c #515862",
"n  c #6F4C69",
"m  c #5A626A",
"M  c #880855",
"N  c #97075B",
"B  c #87064F",
"V  c #A5065D",
"C  c #88197A",
"Z  c #9C157E",
"A  c #96167B",
"S  c #900E69",
"D  c #A60866",
"F  c #AC0D7B",
"G  c #A70D74",
"H  c #B30A76",
"J  c #B30C7A",
"K  c #BB0A7A",
"L  c #B70875",
"P  c #A3137E",
"I  c #AB127C",
"U  c #AA1A7D",
"Y  c #B3137A",
"T  c #B61A7C",
"R  c #B20767",
"E  c #B5257D",
"W  c #AB2576",
"Q  c #CD0475",
"!  c #CB0579",
"~  c #C20979",
"^  c #C70976",
"/  c #D30275",
"(  c #D90177",
")  c #D40278",
"_  c #D70676",
"`  c #CB147B",
"'  c #C72B76",
"]  c #82495C",
"[  c #8A5663",
"{  c #95566D",
"}  c #926A6E",
"|  c #A67475",
" . c #A6536E",
".. c #B5867C",
"X. c #3A368A",
"o. c #3C3687",
"O. c #7B1F89",
"+. c #7D1F81",
"@. c #532E86",
"#. c #5C2C86",
"$. c #532E88",
"%. c #5C2C88",
"&. c #44348A",
"*. c #4C348A",
"=. c #443A8C",
"-. c #4A3689",
";. c #533389",
":. c #5B338A",
">. c #55388A",
",. c #4B388D",
"<. c #6C2685",
"1. c #632A86",
"2. c #682C88",
"3. c #742484",
"4. c #7B2282",
"5. c #7D238C",
"6. c #75268C",
"7. c #64348A",
"8. c #6B2B96",
"9. c #652F9E",
"0. c #6C2C99",
"q. c #702692",
"w. c #7B2C9A",
"e. c #782A95",
"r. c #6B329E",
"t. c #67339E",
"y. c #73329E",
"u. c #7B339D",
"i. c #793798",
"p. c #763084",
"a. c #6C36A0",
"s. c #7333A1",
"d. c #7939A3",
"f. c #712FA0",
"g. c #544590",
"h. c #724597",
"j. c #7B42A3",
"k. c #841D81",
"l. c #8C1B83",
"z. c #851D88",
"x. c #8B1D89",
"c. c #941682",
"v. c #9C1582",
"b. c #931A83",
"n. c #9C1B83",
"m. c #941E89",
"M. c #A41480",
"N. c #A61B82",
"B. c #B51D81",
"V. c #86228E",
"C. c #8C238A",
"Z. c #872889",
"A. c #93238B",
"S. c #992988",
"D. c #98368C",
"F. c #812693",
"G. c #862A94",
"H. c #863797",
"J. c #943894",
"K. c #88348D",
"L. c #A62784",
"P. c #B82983",
"I. c #A83988",
"U. c #B93788",
"Y. c #A63C92",
"T. c #8336A0",
"R. c #C73187",
"E. c #CC1C80",
"W. c #8B4899",
"Q. c #964896",
"!. c #9A569B",
"~. c #994C8B",
"^. c #A8478B",
"/. c #B5448A",
"(. c #A44A93",
"). c #A75895",
"_. c #B3528F",
"`. c #A9669A",
"'. c #B8779C",
"]. c #AE6F91",
"[. c #8648A4",
"{. c #8B55A6",
"}. c #9659A3",
"|. c #914FA7",
" X c #BE56A4",
".X c #AE52A1",
"XX c #9B65A8",
"oX c #9B61B0",
"OX c #A669A6",
"+X c #AA74A9",
"@X c #B67AA7",
"#X c #BA6DAA",
"$X c #C14A91",
"%X c #C54F94",
"&X c #C96A98",
"*X c #C868A4",
"=X c #CA79A9",
"-X c #D278A8",
";X c #D378B9",
":X c #CE71AC",
">X c #C558A5",
",X c #77958A",
"<X c #6A8C85",
"1X c #83988C",
"2X c #959491",
"3X c #B08D8F",
"4X c #BA87A8",
"5X c #B786B3",
"6X c #B39FA3",
"7X c #B6BAAC",
"8X c #C39B89",
"9X c #CE84AC",
"0X c #C68CAB",
"qX c #C698AA",
"wX c #D68FBB",
"eX c #D88FBA",
"rX c #D585B8",
"tX c #C699B6",
"yX c #D790BC",
"uX c #D992BD",
"iX c #D594B1",
"pX c #CF86B2",
"aX c #C9ACB6",
"sX c #D5AAB9",
"dX c #DAB3B9",
"fX c #CAB5AD",
"gX c #E4B5BC",
"hX c #D2AF94",
"jX c #BBC1B1",
"kX c #E6D0B3",
"lX c #DD86C3",
"zX c #D995C4",
"xX c #DFA0C9",
"cX c #DFA0C7",
"vX c #DCAFCD",
"bX c #E2A4CB",
"nX c #EABADA",
"mX c #EAB5CE",
"MX c #ECBBE1",
"NX c #E19CC9",
"BX c #E9C4DB",
"VX c #EBCECF",
"CX c #F4E8D8",
"ZX c #F1C6E4",
"AX c #F3CBE6",
"SX c #F4D6EC",
"DX c #EFCEE7",
"FX c #FBECF6",
"GX c #FDF8FA",
"HX c #FAEFEA",
"JX c #DEC4D3",
/* pixels */
"X.X.X.X.X.X.X.X.X.X.X.X.X.X.X.X.X.X.X.X.X.X.X.X.X.X.X.X.X.X.X.X.X.X.X.X.X.X.X.X.X.X.X.X.X.X.X.X.X.X.X.X.X.X.X.X.X.X.o.X.X.X.X.X.",
"X.X.X.=.&.X.X.X.X.X.o.=.X.X.X.X.X.o.X.=.X.g.=.X.X.X.X.g.X.X.X.X.X.X.X.X.=.=.X.X.=.X.X.X.=.X.=.X.=.=.X.g.o.X.X.6 6 6 o.o.X.X.X.X.",
"&.&.&.&.&.&.&.,.,.&.o.&.g.=.&.g.&.o.=.&.X.=.&.,.&.&.X.X.>.&.=.=.=.&.&.&.=.=.X.&.*.&.=.g.&.=.&.*.=.&.X.6 h g.=.6 * g.g.o.,.&.X.&.",
"-.,.&.&.*.&.&.-.g.&.&.*.&.*.*.6 h &.-.,.,.g.,.-.&.&.-.,.-.&.g.,.-.-.>.&.g.&.>.,.g.&.=.*.>.&.*.=.&.&.&.6 o 6 *.* * X.=.=.&.;.&.&.",
";.-.>.;.-.;.-.*.&.>.&.$.*.>.j 3 4 -.-.>.>.;.*.;.;.>.*.*.*.;.g.>.-.*.;.*.>.-.g.$.-.;.$.>.*.>.g.-.>.-.*.h * $ 6 3 3 j *.j h h &.-.",
"$.$.;.;.;.;.;.$.*.4 3 j j >.6 - 9 >.;.>.;.:.g.;.;.>.;.:.$.*.h.g.$.$.$.-.;.;.;.$.;.;.$.-.$.$.>.$.$.$.;.>.h o 3 * o - $ = 4 h *.$.",
"$.$.:.;.$.7.:.:.$.j 9 * * h 4 o h $.h 8 j :.$.:.:.;.%.:.#.$.:.7.$.%.:.:.:.$.%.;.:.$.$.:.:.$.%.;.#.>.9 * o X X - - 3 h :.;.:.%.$.",
"#.7.#.#.%.%.:.%.7.1.%.j 4 o o 3 h 3 $ = h :.:.:.:.2.%.>.7.#.7.j %.%.7.$.2.%.%.%.7.%.%.%.%.7.%.%.7.9 9 3 $ o X   $ $ X 3 #.2.#.#.",
"1.#.2.2.1.1.1.#.7.h 3 = = % o = $ o 3 p #.7.1.k %.2.#.1.7.#.#.7.%.2.1.1.2.%.1.1.7.#.2.2.1.2.%.7.#.#.9 o o 3 % . . 3 3 X = #.#.#.",
"1.1.2.1.1.1.2.j & X % = = % . X X o j 1.1.1.2.2.1.2.2.1.6.i.W.!.W.h.2.1.7.2.2.2.1.1.2.7.1.1.2.2.1.p + 3 9 9 X $ $ 3 k 9 3 9 <.1.",
"<.<.2.<.2.<.d 3 9 9 p 9 = o % o X % o 9 k <.8.7.<.p.!.@XiXuXyXeXwXwXwX@XW.2.<.<.<.2.2.<.<.<.<.1.k 3 9 p k = = 3 3 o p 1.p 8 k 1.",
"<.<.p.k 6.<.p k k k l 8 o & o 3 = o 3 1 0 <.6.6.}.rXwXuXwXuXeXyXwXuXlXeXuXrXQ.<.3.<.3.<.3.<.<.p.d p k <.p % 9 8 9 $ p p.<.d k <.",
"O.3.3.3.6.3.3.6.6.p.8 o & p X = 8 $ = k 0 3.G.@XwXwXwXwXeXyXyXyXuXwXiXeXeXyXwX#Xp.3.3.3.l p.3.3.k f <.O.9 > d 8 a o p 3.6.<.3.O.",
"3.4.3.4.4.3.4.4.3.d & & d d X 8 a p   a 3.K.pXwXwXwXeXwXyXeXyXyXwXuXeXwXyXyXwXzX=XZ.O.O.O.+.+.3.O.l 4.k d p f 8 k p a 4.O.f O.l ",
"+.+.+.+.+.+.+.+.f 0 = a +.d X > f t 8 8 G.pXwXwXeXwXzXwXeXeXeXzXwXwXuXwXyXyXyXeXzX=X4.+.+.+.+.+.4.4.f k.l f C.8 f f 4.4.+.+.f +.",
"+.k.k.k.k.k.k.+.k.+.s f k.a X 8 f f a > #XwXeXeXeXeXeXwXeXeXeXeXwXwXwXwXeXeXeXeXwXwX#X+.+.k.+.k.s a +.k.C.C f 8 f C.f C.k.k.k.+.",
"k.k.k.k.b.C.C C k.a s k.k.s : t +.k.C l iXuXuXuXeXeXeXeXeXeXuXuXzXeXzXeXyXyXyXyXzXyXyXJ.l.l.s f a 0 k.f s z.k.7 C k.k.k.b.k.k.b.",
"C b.k.b.C s C k.C & s l.A a a C l.l.k.=XuXuXuXuXzXeXyXzXeXzXuXuXeXeXeXyXyXyXyXyXzXyXyX:Xl.l.t 3 t & 8 7 s k.k.8 b.k.k.C b.k.b.k.",
"b.b.A k.A t 8 t s + C s a t s c.A A Y.eXuXuXuXuXzXeXyXyXeXuXuXuXeXuXzXeXuXuXyXyXeXzXyXyXS.A l.7 + + : 0 s c.A 8 A b.A b.b.b.A b.",
"Z Z c.A b.A s 7 + 8 7 @ 7 7 C Z c.c.#XeXuXuXuXuXzXzXyXyXuXuXuXuXuXuXzXyXyXcXyXuXzXeXzXyX.Xc.0 @ o o & 7 > q C > Z b.b.Z A A A Z ",
"v.A Z c.t & + + X + + t A 7 A v.Z Z  X X X X X X>X X X X X X>X>X>X>X X X>X X X>X>X>X>X X/.C g @ 7 X & t A s C 7 C S Z Z v.A v.Z ",
"Z I Z q e e e & & X + @ g > Z v.I Z NXcXxXxXxXxXcXbXcXbXbXbXnXnXmXbXbXcXcXcXcXcXbXuXcXcXzXI 0 r t > q > A S e 7 7 S A Z I Z I Z ",
"I I I A G A > : : & & > q & M.F I N.;X;X;X;X;X;X;X;XlXrXlXlXmXmXlXlXlX;X;X;X;X;X;X;X;X;X;XM.r F e t r S A Z q : : r 7 A I M.I Z ",
"I I I I I r & S 7 7 r % S : J M.F L.ZXnXnXBXnXBXMXMXZXnXDXDXSXHXAXDXZXDXBXZXnXZXnXnXBXBXnXM.I M.G G r M.G q % + o + g F M.F F I ",
"F F J M.G q M J 7 7 G q q > J F F B.ZXZXDXZXZXZXAXAXSXvXDXSXHXFXSXSXDXDXAXSXDXZXZXZXZXMXMXB.K J J F S D S S 8 + + @ , A J J F J ",
"F J J K J F M.B.q q J G r > J J J I SXFXFXFXFXFXFXFXFXaXCXHXHXGXFXFXFXFXFXFXFXFXFXFXFXFXMXM.M.J J J A S K G @ y @ e q G J J J J ",
"J K K K K K J K q D K J S > J K F q NXSXSXDXSXSXSXSXBX| | dXCXGXHXJXsXJXSXSXSXSXSXSXSXSXlXK K K K J K r K D + D > G q J K K K K ",
"K ~ K K B.~ K ~ r K K K D @ w G D > :XJXDXSXSXSXSXVX{ } ..8XCXGXHXVXJXBXDXSXSXSXSXSXSXSX>X! ~ K ~ K ~ e K D > D N K G ~ K K K K ",
"~ ~ ~ ~ ~ ~ ~ ~ q ~ ~ ~ N 7 V , : q y i tXMXnXMXnXVX| 8XhXkXHXGXCXVXVXdXsXBXZXmXnXMXMXbX~ ~ ~ ~ ~ ~ ~ r ~ B q D L ~ ~ ~ ~ ~ ~ ~ ",
"! ! ! ! ~ ! ! ! w ~ ! ! B @ : : + @ : _.BXBXDXcXsXCX..hXkXkXHXGXCXkXfX8X3XvXDXVXvXBXBX:X! ! ! ! ! ~ ! B L , M D L ! ! ~ ! ! ! ! ",
"! ! ! ! ! ! ! ! q ) ! L > > B : X + @ q tXbXiXn { qX[ | ..hXCXHXhX8X| { v ].mX].~.tXlX/ ! ! ! ! ~ ~ ! N R @ G D Q ! ! ) ! ! ! ! ",
") ) ) ) ) ) ) ! w ) ) Q w , q , @ 7 @ w ].nX3X< 0 3X] } ..8XCXHXhX..| { i { 3X# X i R.R q G ) / V R ) N B @ Q D Q ) ! ) ) ) ) ) ",
"( ( ( ( ( ( _ ^ B _ ' < : : , R : B q @ @ 8Xv $ < 3X] [ } | VXHX..| [ ] i < | X   1 Q V w V / ' 1 @ V V q > ( V ( _ ( ( Q _ _ _ ",
"( ( ( ( ( _ _ W , B <     1 V _ @ B :     } 2 - 1 | i ] [ } kXHX[ [ ] i u < }     # &X# X   V  .    w V + : V V ( _ ( ( ( ( ( ( ",
"( ( ( ( ( ( Q [           , R Q : B @     [ -   @ | 2 i ] ] sXCX[ i i i < 2 }     1 }       ,  .    q  .X   @ V Q ( ( ( _ _ ( _ ",
"( Q / / / _ Q }           < w w : N @   . v   - . } 2 < q i 8XCXi i u < 1 y  .    1 } -     ,  .    q [   X @ N Q Q ( ( _ _ _ _ ",
"/ Q Q Q / / ^ v         X $ ; - - < 1 - - } u - - ..; 5 u u 3XmXu u u 2 ; y } - $ < } - - - >  .. . q {     - N Q ) Q / Q / / / ",
"Q ^ ` ` E.E.' m u 5 z z z z z z c c n x x 2X..x x 2Xx x m m ].dXm m x x x } 3Xx x m 2Xx z z n 3Xc c n ].u z u W R.E.' ` ` Q ^ ^ ",
"&X*X-X-X-X9X0X<X<X<X<X<X<X,X,X,X,X1X1X,X1XjX7X,X,XjX,X1X1X1X6XkX1X1X1X1X,X6XfX,X1X2XjX,X,X,X2XfX,X,X2X2X<X<X<X4X9X-X9X-X=X=X-X-X",
"sXsXsXsXsXvXsXaX6XaXaX7XaXfXaXsXfXsXdXsXfXdXgXdXdXgXdXdXsXsXgXmXdXdXdXsXsXdXgXdXfXdXJXaXdXdXdXvXfXfXsXdX7XaXaXdXdXsXcXsXsXcXsXiX",
"R.R.R./.%X%X>X>X*X*X*X*X-X*X*X=X*X9X9X9X9X0XpX9X9X9X9X9X9X9X9X9XiX0X9X9X9X9X9XpX9XpX=X9X-X9X=X=X=X:X*X=X*X*X*X>X>X>X%X%X$XR.R.U.",
"K J L L K J L H J J Y Y T E P.P.P.P.U.P.P.R./.R.$X/.$X$X$X%X%X%X%X$X$X$X$X/.R./.$XR.U.U.U.P.P.P.P.P.P.T T Y H J L Y H L H L J J ",
"L G L J J H H H J L J G L J J H Y J Y H J Y B.Y T T T E T E E E E T T T T Y Y Y Y J J J J J G J H H J H H H J L H H H H J L J J ",
"F F F F F J G I F J F F Y Y F I Y Y Y F I Y B.Y U T E E E E E ' E E E T U T I I I Y Y I F F J F G F J F F F F F G F F F F F J G ",
"F M.G F F I I G I Z F M.I I I I U I I I U T U T L.E L.E P.P.' E E E W E E U U I I N.I I I I I F F I I I F F G F F F F F F F G F ",
"M.v.M.F I I M.M.I I M.I v.I I M.N.M.U N.N.L.L.L.P.P.P.L.L. ._././.W U.L.L.L.E U U N.I M.I v.M.I I I Z M.F M.v.v.v.v.G F F M.G v.",
"v.M.M.c.M.M.M.c.M.M.n.I Z v.Z L.N.N.N.N.L.L.L.E W I.I.L./././././.E I.I.P.L.L.N.N.N.N.N.n.Z U v.M.M.Z M.v.M.v.G v.M.v.v.M.v.v.v.",
"G v.M.v.c.M.c.M.v.n.n.Z v.n.N.n.n.n.N.S.L.L.S.L.L./.I.I./.^._._.^.^.I.W I.L.L.S.L.L.n.n.n.n.n.v.M.c.M.c.v.v.v.v.v.v.v.v.v.v.v.v.",
"c.c.c.c.c.c.c.c.v.v.c.c.n.v.m.n.n.b.S.L.S.S.S.L.I.^.I.^.^./._._.I. .I.I.^.S.S.S.S.L.A n.n.n.n.m.l.c.c.c.v.c.c.c.c.c.v.c.c.c.c.v.",
"c.c.c.c.c.c.m.m.c.m.m.c.b.S.b.b.A.b.S.S.Z S.S.L.(.S.I.^.^._.]._.(.^.^.D.I.L.S.S.A.S.A.A.b.b.b.n.c.c.c.c.m.m.c.c.c.c.c.c.c.c.c.c.",
"m.m.x.x.x.m.m.m.x.x.m.m.S.A.A.A.A.S.J.S.D.S.D.D.^.~.(.^._.`.&X].)._._.(.(.D.D.S.S.S.S.C.A.m.A.A.x.b.x.x.m.m.m.x.x.x.x.m.c.x.x.x.",
"V.x.x.x.x.m.V.x.x.x.x.x.A.C.C.A.A.S.J.S.D.D.D.(.(.(.(.)._.`.'.].`.).(.(.(.D.D.D.S.D.S.A.C.C.x.A.C.x.x.x.x.x.x.x.x.x.x.x.x.z.x.x.",
"z.z.z.x.z.V.x.x.z.C.z.A.x.C.C.Z.C.D.G.Z.K.D.J.(.~.~.~.(.`.].].].`._.(.(.Q.D.D.D.K.S.G.C.C.C.C.z.C.z.z.z.z.z.x.x.z.z.z.z.V.x.z.z.",
"V.V.V.F.G.V.V.V.V.V.G.G.Z.G.G.V.J.J.K.D.J.J.Q..XQ.(.).`.`.4X4X'.'.`.).`.).~.J.J.J.K.J.K.G.G.Z.Z.G.V.C.F.C.F.G.F.V.V.V.V.V.V.V.F.",
"O.O.O.F.V.O.O.q.5.Z.G.q.5.5.Z.5.K.G.G.K.K.K.J.Q.Q.Q.~.).`.@X'.'.`.`.!.).Q.J.H.K.K.K.J.Z.F.5.5.5.G.F.O.5.O.O.O.5.O.O.O.O.O.F.O.O.",
"F.F.F.F.F.F.F.F.F.T.G.G.K.G.G.K.J.H.K.H.Q.Q.}.Q.).OXOX#X@X0XqX0X4X'.OXOX}.!.Q.Q.H.H.J.G.K.K.F.F.G.G.F.F.F.F.F.G.O.w.V.w.V.F.F.F.",
"q.q.5.O.q.O.q.6.5.e.5.6.5.e.5.H.w.5.i.K.K.H.!.Q.!.!.!.`.].4X4X4X'.`.XXOXQ.Q.W.H.K.K.H.w.w.5.5.6.q.F.q.O.O.O.O.O.q.O.O.O.q.O.w.O.",
"e.T.w.y.e.w.G.w.T.w.i.w.u.G.G.[.H.H.W.W.W.}.}.}.!.`.+X@X0XqXqXqX4X4X+X+X!.!.!.W.W.H.[.H.H.K.i.w.F.T.w.w.w.w.f.f.F.f.w.w.q.w.w.f.",
"F.w.e.q.q.q.q.u.q.y.q.e.8.i.T.i.i.i.i.i.H.}.W.!.!.}.OX+X0X4XqXqX4X@XOX+X!.Q.W.W.W.i.T.i.y.i.e.i.w.w.q.q.0.q.O.0.f.q.q.q.q.q.q.w.",
"w.f.w.w.f.w.T.s.s.G.u.s.u.T.[.u.T.W.W.[.{.OX}.}.OX+X+X4XaXtXsXsXtX4X4X@XXXXX}.[.[.[.|.d.u.u.u.u.w.d.f.w.f.w.w.f.T.T.f.w.w.f.w.f.",
"0.0.q.8.0.0.s.e.e.0.0.0.0.j.y.i.h.i.j.j.j.{.j.{.}.XX+X4XtX0XsXsXaX5XXX5XXX{.W.W.j.i.[.d.y.y.e.y.f.0.s.0.0.0.0.0.f.f.f.9.q.q.0.0.",
"f.f.f.f.s.d.s.s.s.s.s.d.u.[.d.d.j.j.[.{.XXXXXXXX+X+X5X5XsXsXdXdXaX5X5X5X+XXX}.{.{.{.[.[.j.d.s.s.s.s.T.y.f.f.0.f.f.f.f.f.f.f.f.f.",
"9.8.f.a.a.s.r.r.r.r.9.a.j.a.i.a.j.j.j.j.oX{.oXXXXX+X4X5XtXsXgXgXaX0X5X5XXX}.{.{.{.j.j.[.i.y.a.a.s.a.d.a.f.9.9.f.f.9.f.f.f.9.9.0.",
"9.9.9.9.d.9.9.9.9.9.a.a.j.a.a.h.h.j.j.j.{.{.{.XXXXXX5XaXtXdXgXvXsXtX5X5X+XXX{.{.j.j.j.j.h.a.a.9.a.9.a.a.9.9.9.9.9.9.f.9.9.9.9.9."
};
