/* XPM */
static char *purple_s[] = {
/* columns rows colors chars-per-pixel */
"64 64 54 1 ",
"  c #000000",
". c #09040B",
"X c #0F0712",
"o c #120915",
"O c #140A18",
"+ c #1F0D23",
"@ c #1E1122",
"# c #211225",
"$ c #24132A",
"% c #2A142E",
"& c #2B1532",
"* c #2F1835",
"= c #311836",
"- c #34193B",
"; c #391C3E",
": c #3B1D44",
"> c #3E1F48",
", c #3F2046",
"< c #441F4E",
"1 c #45224F",
"2 c #472051",
"3 c #4B2455",
"4 c #4E245A",
"5 c #51265B",
"6 c #572A66",
"7 c #592B66",
"8 c #5D296B",
"9 c #612D6F",
"0 c #632D72",
"q c #692F79",
"w c #663175",
"e c #683176",
"r c #6C327B",
"t c #6E387E",
"y c #70367F",
"u c #743584",
"i c #753984",
"p c #7A368C",
"a c #7C398E",
"s c #7E3990",
"d c #875F94",
"f c #8D539C",
"g c #9563A5",
"h c #A174AF",
"j c #AC8AB6",
"k c #AC85B8",
"l c #B8A5BF",
"z c #BB94C5",
"x c #C3A6C9",
"c c #CAB4D0",
"v c #E2D9E4",
"b c #ECEBEC",
"n c #F3EAF4",
"m c #FFFEFE",
/* pixels */
"                                                                ",
"                                                                ",
"                                                                ",
"                                                                ",
"                                                                ",
"                       #44444444544544.                         ",
"                       >asssssssasssssO                         ",
"                     ;aassssssssssssssy6                        ",
"                     >aaaassaaaasssssssu                        ",
"                     -q&&;*&4p>;===-issr                        ",
"                     >6    .>io    Xiaat                        ",
"                     >uvbbdtiajbblryassr                        ",
"                     :pnmmgsaszmmcsssssr                        ",
"                     :pxccfsashccksssssr                        ",
"                     >sassasasaasssssssr                        ",
"                     ;sq&$%&&&%=&&&2sssq                        ",
"                     $464O        =7sssi33333.                  ",
"                       ;a$        3sssssasssa.                  ",
"                       ;s-OOOoOoOO5sssssssaaa.                  ",
"                       $66659isaaassssssssaaa.                  ",
"                    o>>><,,<<ussssssssssssssa.                  ",
"                    +assssaaasssssssssssssssa.                  ",
"                    +sssssssaassssssssssssssa.                  ",
"                    +ssssssssssssssssssssssaa.                  ",
"                    +ssssssssssssssssssssssaa.                  ",
"                    +aasssasaassssssssssssssa.                  ",
"                    o33433343ussssssssssssssa.                  ",
"                             qasssssssssssssa.                  ",
"                 ............qsssssssssssssss.                  ",
"                 qsssssssssssasssssssssssssss                   ",
"                 qsssssssssssssssssssssssssss.                  ",
"                 rsssssssssssssssssssssssssss                   ",
"                 qsasssssssssssssssssssssssss.                  ",
"                 qsssssaassssssssssssssssssss                   ",
"                 <3<222222223usssssssssssssss                   ",
"                             9sssssssssssssss.                  ",
"                             waasssssssssssss.                  ",
"                             9asssssssssssssa                   ",
"                             ;ussssi445sssssu                   ",
"                              9assse  .assssw                   ",
"                              wassse  .aasss9                   ",
"                              9sssse  .assssq                   ",
"                              qsssse  .sssssq                   ",
"                              8assse  .issssw                   ",
"                              qassse  .sssss0                   ",
"                              8sssse  .ssssae                   ",
"                              9assse  .isass9                   ",
"                           XXXqsssse  .sssss9                   ",
"                          &aasssssse  .assssq                   ",
"                          &sssssssse ..assss8                   ",
"                          =assssssse  .asssa8                   ",
"                          &ssssssssw  .asssa9                   ",
"                          *asssasssqo@$assssqo                  ",
"                          &aaaaaiaiw2ssssssss1                  ",
"                                   .2ssssssss1                  ",
"                                    2ssssssss1                  ",
"                                    3ssssssss<                  ",
"                                    3ssssssss3                  ",
"                                    :889998qq<                  ",
"                                     .                          ",
"                                                                ",
"                                                                ",
"                                                                ",
"                                                                "
};
