/* XPM */
static char *purple_s_2[] = {
/* columns rows colors chars-per-pixel */
"64 64 213 2 ",
"   c #000000",
".  c #5B5B5A",
"X  c #5A5B5B",
"o  c #000000",
"O  c #5D5A58",
"+  c #5D5B58",
"@  c #5D5A59",
"#  c #5C5B59",
"$  c #5D5B59",
"%  c #5F5A58",
"&  c #5F5B58",
"*  c #5E5A59",
"=  c #5E5B59",
"-  c #5E595B",
";  c #5C5A5A",
":  c #5D5A5A",
">  c #5C5B5A",
",  c #5D5B5A",
"<  c #5C5A5B",
"1  c #5D5A5B",
"2  c #5C5B5B",
"3  c #5A5C59",
"4  c #585C5A",
"5  c #5F5D58",
"6  c #5F5C59",
"7  c #595B5C",
"8  c #595B5D",
"9  c #5A5B5C",
"0  c #5B5B5C",
"q  c #5A5B5D",
"w  c #5B5B5D",
"e  c #595B5E",
"r  c #5A5B5E",
"t  c #5C5B5C",
"y  c #595C5C",
"u  c #585C5D",
"i  c #5A5C5D",
"p  c #595C5E",
"a  c #585C5F",
"s  c #5D5D5C",
"d  c #6C594B",
"f  c #685A4E",
"g  c #655756",
"h  c #625B50",
"j  c #635952",
"k  c #635953",
"l  c #605B53",
"z  c #615B53",
"x  c #635A53",
"c  c #625B53",
"v  c #665A51",
"b  c #675B51",
"n  c #645A52",
"m  c #645A53",
"M  c #645B53",
"N  c #655B53",
"B  c #665A52",
"V  c #665B52",
"C  c #665B53",
"Z  c #625954",
"A  c #635955",
"S  c #625A54",
"D  c #625B54",
"F  c #635B54",
"G  c #625A55",
"H  c #625B55",
"J  c #615957",
"K  c #615A56",
"L  c #605B56",
"P  c #615B56",
"I  c #605A57",
"U  c #605B57",
"Y  c #615B57",
"T  c #655955",
"R  c #645B55",
"E  c #615C57",
"W  c #655C54",
"Q  c #645C56",
"!  c #695A50",
"~  c #685B50",
"^  c #685A51",
"/  c #685853",
"(  c #685953",
")  c #625759",
"_  c #615A58",
"`  c #605B58",
"'  c #615A59",
"]  c #60585A",
"[  c #BF2A3D",
"{  c #BF2F3E",
"}  c #BF3432",
"|  c #C62E30",
" . c #C12B39",
".. c #C12B3B",
"X. c #C22D38",
"o. c #C22C39",
"O. c #C22B3C",
"+. c #C12D3C",
"@. c #C43037",
"#. c #EE660F",
"$. c #EF6A09",
"%. c #EB6A0C",
"&. c #EA6B0E",
"*. c #F76A04",
"=. c #F66A05",
"-. c #F66807",
";. c #F76907",
":. c #F56B06",
">. c #F66B06",
",. c #FA6901",
"<. c #F86902",
"1. c #F96803",
"2. c #F86903",
"3. c #FA6803",
"4. c #F96A03",
"5. c #F86904",
"6. c #F96A04",
"7. c #F86906",
"8. c #F96807",
"9. c #F66708",
"0. c #F6660D",
"q. c #F7650F",
"w. c #F6670E",
"e. c #F86709",
"r. c #F16908",
"t. c #F26908",
"y. c #F26A08",
"u. c #F36A08",
"i. c #F46A08",
"p. c #F7690A",
"a. c #F46C0A",
"s. c #E76C11",
"d. c #E96A10",
"f. c #E96A11",
"g. c #EB6B11",
"h. c #E86A12",
"j. c #EC6910",
"k. c #ED6910",
"l. c #EC6812",
"z. c #E06B1B",
"x. c #F66710",
"c. c #F66611",
"v. c #BF2943",
"b. c #B82D41",
"n. c #BF2945",
"m. c #BE2946",
"M. c #BC2A46",
"N. c #B82D44",
"B. c #B72D48",
"V. c #C02943",
"C. c #DF853F",
"Z. c #F7832B",
"A. c #F2862D",
"S. c #F2872D",
"D. c #F1862F",
"F. c #F3862F",
"G. c #F5852C",
"H. c #F5862D",
"J. c #F6862D",
"K. c #F4842E",
"L. c #F6852F",
"P. c #F4862F",
"I. c #F5862F",
"U. c #F8832D",
"Y. c #E68537",
"T. c #EC8630",
"R. c #EF8630",
"E. c #EE8532",
"W. c #EE8533",
"Q. c #EF8633",
"!. c #EE8335",
"~. c #EB8635",
"^. c #E98537",
"/. c #EA8636",
"(. c #EA8637",
"). c #EC8634",
"_. c #ED8634",
"`. c #ED8635",
"'. c #EC8636",
"]. c #E58539",
"[. c #E68438",
"{. c #E68539",
"}. c #E4863A",
"|. c #E6863A",
" X c #E3873C",
".X c #E98739",
"XX c #E4883E",
"oX c #E8883B",
"OX c #EA883B",
"+X c #F28531",
"@X c #F38531",
"#X c #F18630",
"$X c #F18631",
"%X c #F08731",
"&X c #F18731",
"*X c #F38630",
"=X c #F28730",
"-X c #F28631",
";X c #F38631",
":X c #F28731",
">X c #F08632",
",X c #F18732",
"<X c #F18633",
"1X c #F28632",
"2X c #F38632",
"3X c #F28732",
"4X c #F48431",
"5X c #F48630",
"6X c #F48631",
"7X c #F28334",
"8X c #F58335",
"9X c #DD8640",
"0X c #E18740",
/* pixels */
"o o o o o o o o o o o o o o o o o o o o o o o o o o o o o o o o o o o o o o o o o o o o o o o o o o o o o o o o o o o o o o o o ",
"o o o o o o o o o o o o o o o o o o o o o o o o o o o o o o o o o o o o o o o o o o o o o o o o o o o o o o o o o o o o o o o o ",
"o o o o o o o o o o o o o o o o o o o o o o o o o o o o o o o o o o o o o o o o o o o o o o o o o o o o o o o o o o o o o o o o ",
"o o o o o o o o o o o o o o o o o o o o o o o o o o o o o o o o o o o o o o o o o o o o o o o o o o o o o o o o o o o o o o o o ",
"o o o o o o o o o o o o o o o o o o o o o o o o o o o o o o o o o o o o o o o o o o o o o o o o o o o o o o o o o o o o o o o o ",
"o o o o o o o o o o o o o o o o o o o o o o o o o o o o o o o o o o o o o o o o o o o o o o o o o o o o o o o o o o o o o o o o ",
"o o o o o o o o o o o o o o o o o o o o o o o o o o o o o o o o o o o o o o o o o o o o o o o o o o o o o o o o o o o o o o o o ",
"o o o o o o o o o o o o o o o o o o o o o o o o o o o o o o o o o o o o o o o o o o o o o o o o o o o o o o o o o o o o o o o o ",
"o o o o o o o o o o o o o o o o o o o o o o o o o o o o o o o o o o o o o o o o o o o o o o o o o o o o o o o o o o o o o o o o ",
"o o o o o o o o o o o o o o o o o o o o o o o o o o o o o o o o o o o o o o o o o o o o o o o o o o o o o o o o o o o o o o o o ",
"o o o o o o o o o o o o o o o o o o o o o o o o o o o o o o o o o o o o o o o o o o o o o o o o o o o o o o o o o o o o o o o o ",
"o o o o o o o o o o o o o o o o o o o o o o o o o o o o o o o o o o o o o o o o o o o o o o o o o o o o o o o o o o o o o o o o ",
"o o o o o o o o o o o o o o o o o o o o o o o o o o o o o o o o o o o o o o o o o o o o o o o o o o o o o o o o o o o o o o o o ",
"o o o o o o o o o o o o o o o o o o o o o o o o o o o o o o o o o o o o o o o o o o o o o o o o o o o o o o o o o o o o o o o o ",
"o o o o o o o o o o o o o o o o o o o o o o o o o o o o o o o o o o o o o o o o o o o o o o o o o o o o o o o o o o o o o o o o ",
"o o o o o o o o o o o o o o o o o o o o o o o o o o o o o o o o o o o o o o o o o o o o o o o o o o o o o o o o o o o o o o o o ",
"o o o o o o o o o o o o o o o o o o o o o o o o o o o o o o o o o o o o o o o o o o o o o o o o o o o o o o o o o o o o o o o o ",
"o o o o o o o o o o o o o o o o o o o o o o o o o o o o o o o o o o o o o o o o o o o o o o o o o o o o o o o o o o o o o o o o ",
"o o o o o o o o o o o o o o o o o o o o o o o o o o o o o o o o o o o o o o o o o o o o o o o o o o o o o o o o o o o o o o o o ",
"o o o o o o o o o o o o o o o o o o o o o o o o o o o o ` o o o o o H C.H o o o o o o o o o o o o o o o o o o o o o o o o o o o ",
"o o o o o o o o o o o o o o o o o o o o o o o o o o o H }.H o o o H o o o o o o o o o o o o o o o o o o o o o o o o o o o o o o ",
"o o o o o o o o o o o o o o o o o o o o o o o o o o H  XF.}.o o ~ }.H o o o o o o o o o o o o o o o o o o o o o o o o o o o o o ",
"o o o o o o o o o o o o o o o o o o o o o o o o o o o f z.H o f OX&XOXH o o o o o o o o o o o o o o o o o o o o o o o o o o o o ",
"o o o o o o o o o o o o o o o o o o o o o o o o o o o o H o H Y.&X&X XH o o o o o o o o o o o o o o o o o o o o o o o o o o o o ",
"o o o o o o o o o o o o o o o o o o o o o o o o o o o o o o H ~.P.2XH o o o o o o o o o o o o o o o o o o o o o o o o o o o o o ",
"o o o o o o o o o o o o o o o o o o o o o o o o o o o o a H ~.P.&X2XH & o o o o o o o o o o o o o o o o o o o o o o o o o o o o ",
"o o o o o o o o o o o o o o o o o o o o o o o o o o o o & ~.P.2X2X2Xo o o o o o o o o o o o o o o o o o o o o o o o o o o o o o ",
"o o o o o o o o o o o o o o o o o o o o o o o o o o o o H ~.2X2X~.o o o o o o o o o o o o o o o o o o o o o o o o o o o o o o o ",
"o o o o o o o o o o o o o o o o o o o o o o o o o o o H .X2XP.2X~.` o o o o o o o o o o o o o o o o o o o o o o o o o o o o o o ",
"o o o o o o o o o o o o o o o o o o o o o o o o H o o ~.2XP.2X2X2Xo o o o o o o o o o o o o o o o o o o o o o o o o o o o o o o ",
"o o o o o o o o o o o o o o o o o o o o o o o H 9XH H 2X2X2XP.P.~.H o o H H o o o o o o o o o o o o o o o o o o o o o o o o o o ",
"o o o o o o o o o o o o o o o o o o o o o o o o o H f.2X2X2X2X2X~.o o H }.&.H o o o o o o o o o o o o o o o o o o o o o o o o o ",
"o o o o o o o o o o o o o o o o o o o o o o o o & H =.P.2XP.2XP.2XH o ` }.h.H o o o o o o o o o o o o o o o o o o o o o o o o o ",
"o o o o o o o o o o o o o o o o o o o o o o o o a H &.P.P.2X2X2X~.H o o H ` o o o o o o o o o o o o o o o o o o o o o o o o o o ",
"o o o o o o o o o o o o o o o o o o o o o o o o H #.=.P.2X2XP.P.P.~.& o o o o o o o o o o o o o o o o o o o o o o o o o o o o o ",
"o o o o o o o o o o o o o o o o o o o o o o o & & =.=.P.2XP.~.P.2X2XH & o o o o o o o o o o o o o o o o o o o o o o o o o o o o ",
"o o o o o o o o o o o o o o o o o o o o o o o o H =.<.P.P.P.2XP.2X2X}.H o o o o o o o o o o o o o o o o o o o o o o o o o o o o ",
"o o o o o o o o o o o o o o o o o o o o o o o o h d.<.=.P.P.P.P.2X2X~.T.o o o o o o o o o o o o o o o o o o o o o o o o o o o o ",
"o o o o o o o o o o o o o o o o o o o o o o o o o h r.<.5.5.i.i.P.2X@.~.~ o o o o o o o o o o o o o o o o o o o o o o o o o o o ",
"o o o o o o o o o o o o o o o o o o o o o o o o o & =.1.5.0.U.2X2X2X2X2XOXo o o o o o o o o o o o o o o o o o o o o o o o o o o ",
"o o o o o o o o o o o o o o o o o o o o o o o o & & r.<.0. .0.<.P.P.P.2X2Xo o o o o o o o o o o o o o o o o o o o o o o o o o o ",
"o o o o o o o o o o o o o o o o o o o o o o o o a g &.<.c. .| 0.0.@.2X2X2Xo o o o o o o o o o o o o o o o o o o o o o o o o o o ",
"o o o o o o o o o o o o o o o o o o o o o o o o o @ + #. .{ m.[ | 0.=.=.f.H o o o o o o o o o o o o o o o o o o o o o o o o o o ",
"o o o o o o o o o o o o o o o o o o o o o o o o o @ @ g m.m.m.{ 0.1.1.&.f o o o o o o o o o o o o o o o o o o o o o o o o o o o ",
"o o o o o o o o o o o o o o o o o o o o o o o o a & 3 + N.m.V. .c.5.#.H o o o o o o o o o o o o o o o o o o o o o o o o o o o o ",
"o o o o o o o o o o o o o o o o o o o o o o o o & 3 o & & g B.m.{ l.! o o o o o o o o o o o o o o o o o o o o o o o o o o o o o ",
"o o o o o o o o o o o o o o o o o o o o o o o o & a a & a & ) o o H o o o o o o o o o o o o o o o o o o o o o o o o o o o o o o ",
"o o o o o o o o o o o o o o o o o o o o o o o o a & 3 3 a & o o o o o o o o o o o o o o o o o o o o o o o o o o o o o o o o o o ",
"o o o o o o o o o o o o o o o o o o o o o o o o o o o o o o o o o o o o o o o o o o o o o o o o o o o o o o o o o o o o o o o o ",
"o o o o o o o o o o o o o o o o o o o o o o o o o o o o o o o o o o o o o o o o o o o o o o o o o o o o o o o o o o o o o o o o ",
"o o o o o o o o o o o o o o o o o o o o o o o o o o o o o o o o o o o o o o o o o o o o o o o o o o o o o o o o o o o o o o o o ",
"o o o o o o o o o o o o o o o o o o o o o o o o o o o o o o o o o o o o o o o o o o o o o o o o o o o o o o o o o o o o o o o o ",
"o o o o o o o o o o o o o o o o o o o o o o o o o o o o o o o o o o o o o o o o o o o o o o o o o o o o o o o o o o o o o o o o ",
"o o o o o o o o o o o o o o o o o o o o o o o o o o o o o o o o o o o o o o o o o o o o o o o o o o o o o o o o o o o o o o o o ",
"o o o o o o o o o o o o o o o o o o o o o o o o o o o o o o o o o o o o o o o o o o o o o o o o o o o o o o o o o o o o o o o o ",
"o o o o o o o o o o o o o o o o o o o o o o o o o o o o o o o o o o o o o o o o o o o o o o o o o o o o o o o o o o o o o o o o ",
"o o o o o o o o o o o o o o o o o o o o o o o o o o o o o o o o o o o o o o o o o o o o o o o o o o o o o o o o o o o o o o o o ",
"o o o o o o o o o o o o o o o o o o o o o o o o o o o o o o o o o o o o o o o o o o o o o o o o o o o o o o o o o o o o o o o o ",
"o o o o o o o o o o o o o o o o o o o o o o o o o o o o o o o o o o o o o o o o o o o o o o o o o o o o o o o o o o o o o o o o ",
"o o o o o o o o o o o o o o o o o o o o o o o o o o o o o o o o o o o o o o o o o o o o o o o o o o o o o o o o o o o o o o o o ",
"o o o o o o o o o o o o o o o o o o o o o o o o o o o o o o o o o o o o o o o o o o o o o o o o o o o o o o o o o o o o o o o o ",
"o o o o o o o o o o o o o o o o o o o o o o o o o o o o o o o o o o o o o o o o o o o o o o o o o o o o o o o o o o o o o o o o ",
"o o o o o o o o o o o o o o o o o o o o o o o o o o o o o o o o o o o o o o o o o o o o o o o o o o o o o o o o o o o o o o o o ",
"o o o o o o o o o o o o o o o o o o o o o o o o o o o o o o o o o o o o o o o o o o o o o o o o o o o o o o o o o o o o o o o o "
};
