/* XPM */
static char *space[] = {
/* columns rows colors chars-per-pixel */
"64 64 25 1 ",
"  c black",
". c #09080D",
"X c #110A0F",
"o c #10101D",
"O c #1A121C",
"+ c #0C1821",
"@ c #1E1123",
"# c #18182A",
"$ c #2F1B32",
"% c #15202E",
"& c #1C283E",
"* c #183041",
"= c #253F60",
"- c #532F51",
"; c #315A79",
": c #30637A",
"> c #6C4748",
", c #71495F",
"< c #8A6156",
"1 c #8F6963",
"2 c #3C7F93",
"3 c #3D7299",
"4 c #6EB5D2",
"5 c #CFA9A2",
"6 c #D4B2AF",
/* pixels */
"                                                                ",
"           @                                       +            ",
"                      +                                         ",
"    +                            ,@                             ",
"    :+                           @                              ",
"                                                           +:   ",
"                                                            +   ",
"                                                                ",
"                                                                ",
"                                                                ",
"                                                                ",
"                  X                             .               ",
"                  $                           . =.       @      ",
"                 O>X.                   +      &2o       ,@     ",
"     ,@         $>61-X                        %34=.             ",
"     @           X<$                          .o;#              ",
"                 .- .                           +               ",
"                  X                             .               ",
"                  X                                             ",
"                                                                ",
"                                                                ",
"                                                            @   ",
"                                                                ",
"                              +:                                ",
"                               +                                ",
"                                               @                ",
"      +       .                                                 ",
"             .= .                                               ",
"             o2&                                       +        ",
"            .=43%                                      :+       ",
"             #;o.                                               ",
"              +                                                 ",
"              .                                                 ",
"                                  +                             ",
"                                          @,                    ",
"                                           @                    ",
"                                                                ",
"                                                                ",
"  +:                                                .           ",
"   +                                               .% .         ",
"                         .                         o3&          ",
"               @         +                        .+4:.         ",
"                        #=o.                       #=o.         ",
"                       .=43%                 X      o           ",
"                        o3&                  $                  ",
"                        .* .                O>X.                ",
"                         .                 $>61-X               ",
"                                            X<$             +   ",
"                                            .- .                ",
"          X                                  X                  ",
"          X                                  X                  ",
"         .- .                                                   ",
"         X1$                                                    ",
"        $>51-X                                                  ",
"         O>X.                      :+                           ",
"          $                        +                            ",
"          X                                                     ",
"                                                           +:   ",
"                                                            +   ",
"                                                                ",
"                      ,@                           +            ",
"  +                   @                                         ",
"                                                                ",
"                                                                "
};
